<svg width="1440" height="2641" viewBox="0 0 1440 2641" fill="none" xmlns="http://www.w3.org/2000/svg">
<path d="M-378 220.806C-378 220.806 268.176 180.989 545.191 435.985C822.206 690.981 781.417 931.835 781.417 931.835C781.417 931.835 690.195 1243.52 1089.9 1262.53C1489.6 1281.53 1452.42 1534.12 1452.42 1534.12M-365.666 213.701C-365.666 213.701 275.087 177.457 552.002 432.521C828.917 687.584 790.42 926.931 790.42 926.931C790.42 926.931 702.467 1236.47 1099.17 1257.45C1495.87 1278.43 1461.06 1529.46 1461.06 1529.46M-353.331 206.595C-353.331 206.595 281.997 173.925 558.813 429.057C835.628 684.188 799.423 922.027 799.423 922.027C799.423 922.027 714.74 1229.41 1108.44 1252.37C1502.15 1275.33 1469.69 1524.8 1469.69 1524.8M-340.997 199.49C-340.997 199.49 288.908 170.393 565.623 425.592C842.339 680.792 808.426 917.122 808.426 917.122C808.426 917.122 727.012 1222.36 1117.72 1247.29C1508.43 1272.22 1478.33 1520.15 1478.33 1520.15M-328.662 192.384C-328.662 192.384 295.818 166.861 572.434 422.128C849.05 677.395 817.429 912.218 817.429 912.218C817.429 912.218 739.285 1215.3 1126.99 1242.21C1514.7 1269.12 1486.96 1515.49 1486.96 1515.49M-316.328 185.279C-316.328 185.279 302.728 163.329 579.245 418.664C855.761 673.999 826.432 907.313 826.432 907.313C826.432 907.313 751.557 1208.24 1136.27 1237.13C1520.98 1266.01 1495.6 1510.83 1495.6 1510.83M-303.993 178.173C-303.993 178.173 309.639 159.797 586.056 415.2C862.473 670.603 835.435 902.409 835.435 902.409C835.435 902.409 763.83 1201.19 1145.54 1232.05C1527.25 1262.91 1504.24 1506.18 1504.24 1506.18M-291.659 171.068C-291.659 171.068 316.549 156.265 592.867 411.736C869.184 667.207 844.438 897.504 844.438 897.504C844.438 897.504 776.102 1194.13 1154.82 1226.97C1533.53 1259.8 1512.87 1501.52 1512.87 1501.52M-279.324 163.962C-279.324 163.962 323.46 152.733 599.677 408.271C875.895 663.81 853.441 892.6 853.441 892.6C853.441 892.6 788.375 1187.08 1164.09 1221.89C1539.81 1256.7 1521.51 1496.86 1521.51 1496.86M-266.99 156.857C-266.99 156.857 330.37 149.201 606.488 404.807C882.606 660.414 862.444 887.695 862.444 887.695C862.444 887.695 800.647 1180.02 1173.36 1216.81C1546.08 1253.59 1530.14 1492.2 1530.14 1492.2M-254.655 149.751C-254.655 149.751 337.281 145.668 613.299 401.343C889.317 657.018 871.447 882.791 871.447 882.791C871.447 882.791 812.92 1172.96 1182.64 1211.73C1552.36 1250.49 1538.78 1487.55 1538.78 1487.55M-242.321 142.646C-242.321 142.646 344.191 142.136 620.11 397.879C896.028 653.621 880.45 877.886 880.45 877.886C880.45 877.886 825.192 1165.91 1191.91 1206.64C1558.64 1247.38 1547.41 1482.89 1547.41 1482.89M-229.986 135.54C-229.986 135.54 351.102 138.604 626.92 394.415C902.739 650.225 889.454 872.982 889.454 872.982C889.454 872.982 837.465 1158.85 1201.19 1201.56C1564.91 1244.28 1556.05 1478.23 1556.05 1478.23M-217.652 128.435C-217.652 128.435 358.012 135.072 633.731 390.95C909.45 646.829 898.457 868.077 898.457 868.077C898.457 868.077 849.737 1151.8 1210.46 1196.48C1571.19 1241.17 1564.69 1473.58 1564.69 1473.58M-205.317 121.329C-205.317 121.329 364.923 131.54 640.542 387.486C916.161 643.432 907.46 863.173 907.46 863.173C907.46 863.173 862.01 1144.74 1219.74 1191.4C1577.46 1238.07 1573.32 1468.92 1573.32 1468.92M-192.983 114.224C-192.983 114.224 371.833 128.008 647.353 384.022C922.872 640.036 916.463 858.269 916.463 858.269C916.463 858.269 874.282 1137.68 1229.01 1186.32C1583.74 1234.96 1581.96 1464.26 1581.96 1464.26M-180.648 107.118C-180.648 107.118 378.744 124.476 654.163 380.558C929.583 636.64 925.466 853.364 925.466 853.364C925.466 853.364 886.555 1130.63 1238.29 1181.24C1590.02 1231.86 1590.59 1459.6 1590.59 1459.6M-168.314 100.013C-168.314 100.013 385.654 120.944 660.974 377.094C936.294 633.243 934.469 848.46 934.469 848.46C934.469 848.46 898.827 1123.57 1247.56 1176.16C1596.29 1228.75 1599.23 1454.95 1599.23 1454.95M-155.979 92.9071C-155.979 92.9071 392.565 117.412 667.785 373.629C943.005 629.847 943.472 843.555 943.472 843.555C943.472 843.555 911.1 1116.52 1256.83 1171.08C1602.57 1225.65 1607.86 1450.29 1607.86 1450.29M-143.645 85.8016C-143.645 85.8016 399.475 113.88 674.596 370.165C949.716 626.451 952.475 838.651 952.475 838.651C952.475 838.651 923.372 1109.46 1266.11 1166C1608.84 1222.54 1616.5 1445.63 1616.5 1445.63M-131.31 78.6961C-131.31 78.6961 406.386 110.348 681.406 366.701C956.427 623.054 961.478 833.746 961.478 833.746C961.478 833.746 935.644 1102.4 1275.38 1160.92C1615.12 1219.44 1625.14 1440.97 1625.14 1440.97M-118.976 71.5905C-118.976 71.5905 413.296 106.816 688.217 363.237C963.138 619.658 970.481 828.842 970.481 828.842C970.481 828.842 947.917 1095.35 1284.66 1155.84C1621.4 1216.33 1633.77 1436.32 1633.77 1436.32M-106.641 64.485C-106.641 64.485 420.207 103.284 695.028 359.773C969.849 616.262 979.484 823.937 979.484 823.937C979.484 823.937 960.189 1088.29 1293.93 1150.76C1627.67 1213.23 1642.41 1431.66 1642.41 1431.66M-94.3069 57.3795C-94.3069 57.3795 427.117 99.7515 701.839 356.308C976.56 612.865 988.488 819.033 988.488 819.033C988.488 819.033 972.462 1081.24 1303.21 1145.68C1633.95 1210.13 1651.04 1427 1651.04 1427M-81.9724 50.274C-81.9724 50.274 434.028 96.2194 708.649 352.844C983.271 609.469 997.491 814.128 997.491 814.128C997.491 814.128 984.734 1074.18 1312.48 1140.6C1640.23 1207.02 1659.68 1422.35 1659.68 1422.35M-69.6379 43.1685C-69.6379 43.1685 440.938 92.6873 715.46 349.38C989.982 606.073 1006.49 809.224 1006.49 809.224C1006.49 809.224 997.007 1067.12 1321.75 1135.52C1646.5 1203.92 1668.31 1417.69 1668.31 1417.69M-57.3034 36.063C-57.3034 36.063 447.849 89.1552 722.271 345.916C996.693 602.677 1015.5 804.319 1015.5 804.319C1015.5 804.319 1009.28 1060.07 1331.03 1130.44C1652.78 1200.81 1676.95 1413.03 1676.95 1413.03M-44.969 28.9575C-44.969 28.9575 454.759 85.6232 729.082 342.452C1003.4 599.28 1024.5 799.415 1024.5 799.415C1024.5 799.415 1021.55 1053.01 1340.3 1125.36C1659.05 1197.71 1685.58 1408.37 1685.58 1408.37M-32.6344 21.8519C-32.6344 21.8519 461.67 82.0911 735.892 338.988C1010.12 595.884 1033.5 794.51 1033.5 794.51C1033.5 794.51 1033.82 1045.96 1349.58 1120.28C1665.33 1194.6 1694.22 1403.72 1694.22 1403.72M-20.3 14.7464C-20.3 14.7464 468.58 78.559 742.703 335.523C1016.83 592.488 1042.51 789.606 1042.51 789.606C1042.51 789.606 1046.1 1038.9 1358.85 1115.2C1671.61 1191.5 1702.86 1399.06 1702.86 1399.06M-7.96546 7.64092C-7.96546 7.64092 475.491 75.0269 749.514 332.059C1023.54 589.091 1051.51 784.702 1051.51 784.702C1051.51 784.702 1058.37 1031.84 1368.13 1110.12C1677.88 1188.39 1711.49 1394.4 1711.49 1394.4M4.36903 0.535399C4.36903 0.535399 482.401 71.4948 756.325 328.595C1030.25 585.695 1060.51 779.797 1060.51 779.797C1060.51 779.797 1070.64 1024.79 1377.4 1105.04C1684.16 1185.29 1720.13 1389.74 1720.13 1389.74" stroke="#EE00E0" stroke-opacity="0.4"/>
<path d="M1990.77 1818.63C1990.77 1818.63 1322.47 1687.61 1014.37 1912.91C706.269 2138.21 729.533 2393.06 729.533 2393.06C729.533 2393.06 799.579 2728.2 382.728 2692.3C-34.124 2656.4 -15.5468 2922.88 -15.5468 2922.88M1978.52 1809.56C1978.52 1809.56 1315.57 1682.99 1007.57 1908.38C699.565 2133.76 720.567 2386.73 720.567 2386.73C720.567 2386.73 787.386 2719.2 373.494 2685.76C-40.3994 2652.32 -24.1507 2916.86 -24.1507 2916.86M1966.27 1800.5C1966.27 1800.5 1308.67 1678.38 1000.77 1903.85C692.861 2129.32 711.601 2380.41 711.601 2380.41C711.601 2380.41 775.194 2710.19 364.26 2679.21C-46.6745 2648.23 -32.7545 2910.85 -32.7545 2910.85M1954.01 1791.43C1954.01 1791.43 1301.77 1673.76 993.963 1899.32C686.157 2124.87 702.635 2374.08 702.635 2374.08C702.635 2374.08 763.001 2701.18 355.026 2672.66C-52.95 2644.15 -41.3584 2904.83 -41.3584 2904.83M1941.76 1782.36C1941.76 1782.36 1294.87 1669.15 987.161 1894.78C679.453 2120.42 693.669 2367.76 693.669 2367.76C693.669 2367.76 750.809 2692.18 345.792 2666.12C-59.2253 2640.06 -49.9624 2898.81 -49.9624 2898.81M1929.51 1773.3C1929.51 1773.3 1287.97 1664.53 980.358 1890.25C672.749 2115.98 684.703 2361.43 684.703 2361.43C684.703 2361.43 738.616 2683.17 336.558 2659.57C-65.5006 2635.98 -58.5661 2892.79 -58.5661 2892.79M1917.25 1764.23C1917.25 1764.23 1281.07 1659.92 973.556 1885.72C666.045 2111.53 675.737 2355.11 675.737 2355.11C675.737 2355.11 726.424 2674.17 327.324 2653.03C-71.7758 2631.89 -67.17 2886.77 -67.17 2886.77M1905 1755.17C1905 1755.17 1274.17 1655.3 966.754 1881.19C659.341 2107.08 666.771 2348.78 666.771 2348.78C666.771 2348.78 714.231 2665.16 318.09 2646.48C-78.0512 2627.81 -75.774 2880.75 -75.774 2880.75M1892.75 1746.1C1892.75 1746.1 1267.27 1650.69 959.952 1876.66C652.637 2102.64 657.805 2342.45 657.805 2342.45C657.805 2342.45 702.039 2656.15 308.856 2639.94C-84.3264 2623.72 -84.3777 2874.73 -84.3777 2874.73M1880.49 1737.03C1880.49 1737.03 1260.37 1646.07 953.149 1872.13C645.933 2098.19 648.839 2336.13 648.839 2336.13C648.839 2336.13 689.846 2647.15 299.622 2633.39C-90.6016 2619.64 -92.9817 2868.71 -92.9817 2868.71M1868.24 1727.97C1868.24 1727.97 1253.46 1641.46 946.347 1867.6C639.229 2093.74 639.873 2329.8 639.873 2329.8C639.873 2329.8 677.654 2638.14 290.388 2626.85C-96.8769 2615.55 -101.586 2862.7 -101.586 2862.7M1855.99 1718.9C1855.99 1718.9 1246.56 1636.84 939.545 1863.07C632.525 2089.3 630.907 2323.48 630.907 2323.48C630.907 2323.48 665.461 2629.14 281.155 2620.3C-103.152 2611.47 -110.189 2856.68 -110.189 2856.68M1843.73 1709.84C1843.73 1709.84 1239.66 1632.23 932.743 1858.54C625.821 2084.85 621.941 2317.15 621.941 2317.15C621.941 2317.15 653.268 2620.13 271.92 2613.76C-109.428 2607.39 -118.793 2850.66 -118.793 2850.66M1831.48 1700.77C1831.48 1700.77 1232.76 1627.61 925.94 1854.01C619.117 2080.4 612.975 2310.83 612.975 2310.83C612.975 2310.83 641.076 2611.12 262.687 2607.21C-115.703 2603.3 -127.397 2844.64 -127.397 2844.64M1819.23 1691.71C1819.23 1691.71 1225.86 1623 919.138 1849.48C612.413 2075.96 604.009 2304.5 604.009 2304.5C604.009 2304.5 628.883 2602.12 253.453 2600.67C-121.978 2599.22 -136.001 2838.62 -136.001 2838.62M1806.98 1682.64C1806.98 1682.64 1218.96 1618.38 912.336 1844.95C605.709 2071.51 595.043 2298.18 595.043 2298.18C595.043 2298.18 616.691 2593.11 244.219 2594.12C-128.253 2595.13 -144.605 2832.6 -144.605 2832.6M1794.72 1673.57C1794.72 1673.57 1212.06 1613.77 905.534 1840.42C599.005 2067.06 586.077 2291.85 586.077 2291.85C586.077 2291.85 604.498 2584.11 234.985 2587.58C-134.529 2591.05 -153.209 2826.58 -153.209 2826.58M1782.47 1664.51C1782.47 1664.51 1205.16 1609.15 898.731 1835.89C592.301 2062.62 577.111 2285.52 577.111 2285.52C577.111 2285.52 592.306 2575.1 225.751 2581.03C-140.804 2586.96 -161.813 2820.57 -161.813 2820.57M1770.22 1655.44C1770.22 1655.44 1198.26 1604.54 891.929 1831.35C585.597 2058.17 568.145 2279.2 568.145 2279.2C568.145 2279.2 580.113 2566.1 216.517 2574.49C-147.079 2582.88 -170.417 2814.55 -170.417 2814.55M1757.96 1646.38C1757.96 1646.38 1191.36 1599.92 885.127 1826.82C578.893 2053.72 559.179 2272.87 559.179 2272.87C559.179 2272.87 567.921 2557.09 207.283 2567.94C-153.355 2578.79 -179.02 2808.53 -179.02 2808.53M1745.71 1637.31C1745.71 1637.31 1184.46 1595.31 878.325 1822.29C572.189 2049.28 550.213 2266.55 550.213 2266.55C550.213 2266.55 555.728 2548.08 198.049 2561.4C-159.63 2574.71 -187.624 2802.51 -187.624 2802.51M1733.46 1628.25C1733.46 1628.25 1177.56 1590.7 871.522 1817.76C565.485 2044.83 541.247 2260.22 541.247 2260.22C541.247 2260.22 543.536 2539.08 188.815 2554.85C-165.905 2570.62 -196.228 2796.49 -196.228 2796.49M1721.2 1619.18C1721.2 1619.18 1170.66 1586.08 864.72 1813.23C558.781 2040.38 532.281 2253.9 532.281 2253.9C532.281 2253.9 531.343 2530.07 179.581 2548.31C-172.18 2566.54 -204.832 2790.47 -204.832 2790.47M1708.95 1610.11C1708.95 1610.11 1163.76 1581.47 857.918 1808.7C552.077 2035.94 523.315 2247.57 523.315 2247.57C523.315 2247.57 519.15 2521.07 170.347 2541.76C-178.456 2562.45 -213.436 2784.45 -213.436 2784.45M1696.7 1601.05C1696.7 1601.05 1156.86 1576.85 851.116 1804.17C545.373 2031.49 514.349 2241.25 514.349 2241.25C514.349 2241.25 506.958 2512.06 161.114 2535.22C-184.731 2558.37 -222.04 2778.43 -222.04 2778.43M1684.45 1591.98C1684.45 1591.98 1149.96 1572.24 844.313 1799.64C538.669 2027.04 505.383 2234.92 505.383 2234.92C505.383 2234.92 494.765 2503.05 151.88 2528.67C-191.006 2554.29 -230.643 2772.42 -230.643 2772.42M1672.19 1582.92C1672.19 1582.92 1143.06 1567.62 837.511 1795.11C531.965 2022.6 496.417 2228.6 496.417 2228.6C496.417 2228.6 482.573 2494.05 142.646 2522.12C-197.281 2550.2 -239.247 2766.4 -239.247 2766.4M1659.94 1573.85C1659.94 1573.85 1136.16 1563.01 830.709 1790.58C525.261 2018.15 487.451 2222.27 487.451 2222.27C487.451 2222.27 470.38 2485.04 133.412 2515.58C-203.557 2546.12 -247.851 2760.38 -247.851 2760.38M1647.69 1564.78C1647.69 1564.78 1129.26 1558.39 823.907 1786.05C518.557 2013.7 478.485 2215.94 478.485 2215.94C478.485 2215.94 458.188 2476.04 124.178 2509.03C-209.832 2542.03 -256.455 2754.36 -256.455 2754.36M1635.43 1555.72C1635.43 1555.72 1122.36 1553.78 817.104 1781.52C511.853 2009.26 469.519 2209.62 469.519 2209.62C469.519 2209.62 445.995 2467.03 114.944 2502.49C-216.107 2537.95 -265.059 2748.34 -265.059 2748.34M1623.18 1546.65C1623.18 1546.65 1115.46 1549.16 810.302 1776.99C505.149 2004.81 460.553 2203.29 460.553 2203.29C460.553 2203.29 433.803 2458.02 105.71 2495.94C-222.383 2533.86 -273.663 2742.32 -273.663 2742.32M1610.93 1537.59C1610.93 1537.59 1108.55 1544.55 803.5 1772.46C498.445 2000.36 451.587 2196.97 451.587 2196.97C451.587 2196.97 421.61 2449.02 96.4763 2489.4C-228.658 2529.78 -282.267 2736.3 -282.267 2736.3" stroke="#EE00E0" stroke-opacity="0.4"/>
<path d="M2057.6 -53.1432C2057.6 -53.1432 1363.31 -164.144 1025.75 83.8591C688.178 331.862 697.027 597.818 697.027 597.818C697.027 597.818 750.123 946.019 314.258 924.766C-121.607 903.513 -118.396 1181.83 -118.396 1181.83M2045.28 -62.1562C2045.28 -62.1562 1356.35 -168.706 1018.88 79.3814C681.405 327.469 687.992 591.546 687.992 591.546C687.992 591.546 737.861 937.066 304.955 918.274C-127.952 899.482 -127.069 1175.87 -127.069 1175.87M2032.96 -71.1691C2032.96 -71.1691 1349.38 -173.268 1012 74.9037C674.632 323.075 678.957 585.274 678.957 585.274C678.957 585.274 725.599 928.113 295.652 911.782C-134.296 895.451 -135.742 1169.9 -135.742 1169.9M2020.64 -80.1821C2020.64 -80.1821 1342.41 -177.83 1005.13 70.426C667.859 318.682 669.922 579.001 669.922 579.001C669.922 579.001 713.337 919.161 286.348 905.29C-140.641 891.42 -144.416 1163.94 -144.416 1163.94M2008.32 -89.195C2008.32 -89.195 1335.44 -182.392 998.262 65.9483C661.087 314.288 660.886 572.729 660.886 572.729C660.886 572.729 701.076 910.208 277.045 898.798C-146.985 887.388 -153.089 1157.97 -153.089 1157.97M1995.99 -98.208C1995.99 -98.208 1328.47 -186.954 991.391 61.4705C654.314 309.895 651.851 566.457 651.851 566.457C651.851 566.457 688.814 901.256 267.742 892.306C-153.33 883.357 -161.762 1152.01 -161.762 1152.01M1983.67 -107.221C1983.67 -107.221 1321.5 -191.516 984.52 56.9928C647.541 305.501 642.816 560.184 642.816 560.184C642.816 560.184 676.552 892.303 258.439 885.814C-159.674 879.326 -170.435 1146.04 -170.435 1146.04M1971.35 -116.234C1971.35 -116.234 1314.53 -196.078 977.649 52.5151C640.768 301.108 633.781 553.912 633.781 553.912C633.781 553.912 664.291 883.351 249.136 879.323C-166.019 875.295 -179.109 1140.08 -179.109 1140.08M1959.03 -125.247C1959.03 -125.247 1307.56 -200.639 970.778 48.0374C633.995 296.714 624.746 547.64 624.746 547.64C624.746 547.64 652.029 874.398 239.833 872.831C-172.364 871.264 -187.782 1134.11 -187.782 1134.11M1946.71 -134.26C1946.71 -134.26 1300.59 -205.201 963.907 43.5597C627.222 292.321 615.711 541.367 615.711 541.367C615.711 541.367 639.767 865.445 230.53 866.339C-178.708 867.232 -196.455 1128.15 -196.455 1128.15M1934.39 -143.273C1934.39 -143.273 1293.62 -209.763 957.036 39.0819C620.449 287.927 606.676 535.095 606.676 535.095C606.676 535.095 627.506 856.493 221.226 859.847C-185.053 863.201 -205.129 1122.18 -205.129 1122.18M1922.06 -152.286C1922.06 -152.286 1286.65 -214.325 950.165 34.6042C613.676 283.534 597.641 528.823 597.641 528.823C597.641 528.823 615.244 847.54 211.923 853.355C-191.397 859.17 -213.802 1116.22 -213.802 1116.22M1909.74 -161.299C1909.74 -161.299 1279.68 -218.887 943.294 30.1265C606.903 279.14 588.606 522.55 588.606 522.55C588.606 522.55 602.982 838.588 202.62 846.863C-197.742 855.139 -222.475 1110.25 -222.475 1110.25M1897.42 -170.312C1897.42 -170.312 1272.72 -223.449 936.423 25.6488C600.13 274.747 579.571 516.278 579.571 516.278C579.571 516.278 590.721 829.635 193.317 840.371C-204.087 851.108 -231.148 1104.29 -231.148 1104.29M1885.1 -179.325C1885.1 -179.325 1265.75 -228.011 929.552 21.1711C593.357 270.353 570.536 510.005 570.536 510.005C570.536 510.005 578.459 820.682 184.014 833.879C-210.431 847.077 -239.821 1098.32 -239.821 1098.32M1872.78 -188.338C1872.78 -188.338 1258.78 -232.573 922.681 16.6933C586.584 265.96 561.501 503.733 561.501 503.733C561.501 503.733 566.197 811.73 174.711 827.387C-216.776 843.045 -248.495 1092.36 -248.495 1092.36M1860.46 -197.351C1860.46 -197.351 1251.81 -237.135 915.81 12.2156C579.811 261.566 552.466 497.461 552.466 497.461C552.466 497.461 553.935 802.777 165.408 820.896C-223.12 839.014 -257.168 1086.39 -257.168 1086.39M1848.13 -206.363C1848.13 -206.363 1244.84 -241.697 908.939 7.73791C573.038 257.173 543.431 491.188 543.431 491.188C543.431 491.188 541.674 793.825 156.104 814.404C-229.465 834.983 -265.841 1080.43 -265.841 1080.43M1835.81 -215.376C1835.81 -215.376 1237.87 -246.259 902.068 3.26017C566.265 252.779 534.396 484.916 534.396 484.916C534.396 484.916 529.412 784.872 146.801 807.912C-235.81 830.952 -274.515 1074.46 -274.515 1074.46M1823.49 -224.389C1823.49 -224.389 1230.9 -250.821 895.197 -1.21754C559.492 248.386 525.361 478.644 525.361 478.644C525.361 478.644 517.15 775.919 137.498 801.42C-242.154 826.921 -283.188 1068.49 -283.188 1068.49M1811.17 -233.402C1811.17 -233.402 1223.93 -255.383 888.326 -5.69527C552.719 243.992 516.326 472.371 516.326 472.371C516.326 472.371 504.889 766.967 128.195 794.928C-248.499 822.889 -291.861 1062.53 -291.861 1062.53M1798.85 -242.415C1798.85 -242.415 1216.96 -259.944 881.454 -10.173C545.946 239.599 507.29 466.099 507.29 466.099C507.29 466.099 492.627 758.014 118.892 788.436C-254.843 818.858 -300.534 1056.56 -300.534 1056.56M1786.53 -251.428C1786.53 -251.428 1209.99 -264.506 874.583 -14.6507C539.173 235.205 498.255 459.827 498.255 459.827C498.255 459.827 480.365 749.062 109.589 781.944C-261.188 814.827 -309.207 1050.6 -309.207 1050.6M1774.2 -260.441C1774.2 -260.441 1203.02 -269.068 867.712 -19.1284C532.401 230.811 489.22 453.554 489.22 453.554C489.22 453.554 468.104 740.109 100.286 775.452C-267.532 810.796 -317.881 1044.63 -317.881 1044.63M1761.88 -269.454C1761.88 -269.454 1196.06 -273.63 860.841 -23.6062C525.628 226.418 480.185 447.282 480.185 447.282C480.185 447.282 455.842 731.156 90.9826 768.96C-273.877 806.765 -326.554 1038.67 -326.554 1038.67M1749.56 -278.467C1749.56 -278.467 1189.09 -278.192 853.97 -28.0839C518.855 222.024 471.15 441.01 471.15 441.01C471.15 441.01 443.58 722.204 81.6795 762.469C-280.221 802.734 -335.227 1032.7 -335.227 1032.7M1737.24 -287.48C1737.24 -287.48 1182.12 -282.754 847.099 -32.5616C512.082 217.631 462.115 434.737 462.115 434.737C462.115 434.737 431.319 713.251 72.3764 755.977C-286.566 798.702 -343.9 1026.74 -343.9 1026.74M1724.92 -296.493C1724.92 -296.493 1175.15 -287.316 840.228 -37.0393C505.309 213.237 453.08 428.465 453.08 428.465C453.08 428.465 419.057 704.299 63.0731 749.485C-292.911 794.671 -352.574 1020.77 -352.574 1020.77M1712.6 -305.506C1712.6 -305.506 1168.18 -291.878 833.357 -41.517C498.536 208.844 444.045 422.193 444.045 422.193C444.045 422.193 406.795 695.346 53.77 742.993C-299.255 790.64 -361.247 1014.81 -361.247 1014.81M1700.28 -314.519C1700.28 -314.519 1161.21 -296.44 826.486 -45.9948C491.763 204.45 435.01 415.92 435.01 415.92C435.01 415.92 394.533 686.393 44.4668 736.501C-305.6 786.609 -369.92 1008.84 -369.92 1008.84M1687.95 -323.532C1687.95 -323.532 1154.24 -301.002 819.615 -50.4725C484.99 200.057 425.975 409.648 425.975 409.648C425.975 409.648 382.272 677.441 35.1638 730.009C-311.944 782.578 -378.593 1002.88 -378.593 1002.88M1675.63 -332.545C1675.63 -332.545 1147.27 -305.564 812.744 -54.9502C478.217 195.663 416.94 403.376 416.94 403.376C416.94 403.376 370.01 668.488 25.8608 723.517C-318.289 778.546 -387.267 996.912 -387.267 996.912" stroke="#EE00E0" stroke-opacity="0.4"/>
<path d="M1884.6 2406.64C1884.6 2406.64 1190.31 2517.64 852.746 2269.64C515.178 2021.64 524.027 1755.68 524.027 1755.68C524.027 1755.68 577.123 1407.48 141.258 1428.73C-294.607 1449.99 -291.396 1171.66 -291.396 1171.66M1872.28 2415.65C1872.28 2415.65 1183.35 2522.2 845.875 2274.12C508.405 2026.03 514.992 1761.95 514.992 1761.95C514.992 1761.95 564.861 1416.43 131.955 1435.22C-300.952 1454.02 -300.069 1177.63 -300.069 1177.63M1859.96 2424.67C1859.96 2424.67 1176.38 2526.77 839.004 2278.6C501.632 2030.42 505.957 1768.23 505.957 1768.23C505.957 1768.23 552.599 1425.39 122.652 1441.72C-307.296 1458.05 -308.742 1183.59 -308.742 1183.59M1847.64 2433.68C1847.64 2433.68 1169.41 2531.33 832.133 2283.07C494.859 2034.82 496.922 1774.5 496.922 1774.5C496.922 1774.5 540.337 1434.34 113.348 1448.21C-313.641 1462.08 -317.416 1189.56 -317.416 1189.56M1835.32 2442.69C1835.32 2442.69 1162.44 2535.89 825.262 2287.55C488.087 2039.21 487.886 1780.77 487.886 1780.77C487.886 1780.77 528.076 1443.29 104.045 1454.7C-319.985 1466.11 -326.089 1195.53 -326.089 1195.53M1822.99 2451.71C1822.99 2451.71 1155.47 2540.45 818.391 2292.03C481.314 2043.6 478.851 1787.04 478.851 1787.04C478.851 1787.04 515.814 1452.24 94.7421 1461.19C-326.33 1470.14 -334.762 1201.49 -334.762 1201.49M1810.67 2460.72C1810.67 2460.72 1148.5 2545.01 811.52 2296.51C474.541 2048 469.816 1793.31 469.816 1793.31C469.816 1793.31 503.552 1461.2 85.4391 1467.68C-332.674 1474.17 -343.435 1207.46 -343.435 1207.46M1798.35 2469.73C1798.35 2469.73 1141.53 2549.58 804.649 2300.98C467.768 2052.39 460.781 1799.59 460.781 1799.59C460.781 1799.59 491.291 1470.15 76.1357 1474.18C-339.019 1478.2 -352.109 1213.42 -352.109 1213.42M1786.03 2478.75C1786.03 2478.75 1134.56 2554.14 797.778 2305.46C460.995 2056.78 451.746 1805.86 451.746 1805.86C451.746 1805.86 479.029 1479.1 66.8327 1480.67C-345.364 1482.24 -360.782 1219.39 -360.782 1219.39M1773.71 2487.76C1773.71 2487.76 1127.59 2558.7 790.907 2309.94C454.222 2061.18 442.711 1812.13 442.711 1812.13C442.711 1812.13 466.767 1488.05 57.5297 1487.16C-351.708 1486.27 -369.455 1225.35 -369.455 1225.35M1761.39 2496.77C1761.39 2496.77 1120.62 2563.26 784.036 2314.42C447.449 2065.57 433.676 1818.4 433.676 1818.4C433.676 1818.4 454.506 1497.01 48.2265 1493.65C-358.053 1490.3 -378.129 1231.32 -378.129 1231.32M1749.06 2505.78C1749.06 2505.78 1113.65 2567.82 777.165 2318.89C440.676 2069.97 424.641 1824.68 424.641 1824.68C424.641 1824.68 442.244 1505.96 38.9235 1500.14C-364.397 1494.33 -386.802 1237.28 -386.802 1237.28M1736.74 2514.8C1736.74 2514.8 1106.68 2572.39 770.294 2323.37C433.903 2074.36 415.606 1830.95 415.606 1830.95C415.606 1830.95 429.982 1514.91 29.6201 1506.64C-370.742 1498.36 -395.475 1243.25 -395.475 1243.25M1724.42 2523.81C1724.42 2523.81 1099.72 2576.95 763.423 2327.85C427.13 2078.75 406.571 1837.22 406.571 1837.22C406.571 1837.22 417.721 1523.86 20.3171 1513.13C-377.087 1502.39 -404.148 1249.21 -404.148 1249.21M1712.1 2532.82C1712.1 2532.82 1092.75 2581.51 756.552 2332.33C420.357 2083.15 397.536 1843.49 397.536 1843.49C397.536 1843.49 405.459 1532.82 11.0139 1519.62C-383.431 1506.42 -412.821 1255.18 -412.821 1255.18M1699.78 2541.84C1699.78 2541.84 1085.78 2586.07 749.681 2336.81C413.584 2087.54 388.501 1849.77 388.501 1849.77C388.501 1849.77 393.197 1541.77 1.71087 1526.11C-389.776 1510.45 -421.495 1261.14 -421.495 1261.14M1687.46 2550.85C1687.46 2550.85 1078.81 2590.63 742.81 2341.28C406.811 2091.93 379.466 1856.04 379.466 1856.04C379.466 1856.04 380.935 1550.72 -7.59249 1532.6C-396.12 1514.48 -430.168 1267.11 -430.168 1267.11M1675.13 2559.86C1675.13 2559.86 1071.84 2595.2 735.939 2345.76C400.038 2096.33 370.431 1862.31 370.431 1862.31C370.431 1862.31 368.674 1559.67 -16.8955 1539.1C-402.465 1518.52 -438.841 1273.07 -438.841 1273.07M1662.81 2568.88C1662.81 2568.88 1064.87 2599.76 729.068 2350.24C393.265 2100.72 361.396 1868.58 361.396 1868.58C361.396 1868.58 356.412 1568.63 -26.1987 1545.59C-408.81 1522.55 -447.515 1279.04 -447.515 1279.04M1650.49 2577.89C1650.49 2577.89 1057.9 2604.32 722.197 2354.72C386.492 2105.11 352.361 1874.86 352.361 1874.86C352.361 1874.86 344.15 1577.58 -35.5018 1552.08C-415.154 1526.58 -456.188 1285 -456.188 1285M1638.17 2586.9C1638.17 2586.9 1050.93 2608.88 715.326 2359.19C379.719 2109.51 343.326 1881.13 343.326 1881.13C343.326 1881.13 331.889 1586.53 -44.8048 1558.57C-421.499 1530.61 -464.861 1290.97 -464.861 1290.97M1625.85 2595.91C1625.85 2595.91 1043.96 2613.44 708.454 2363.67C372.946 2113.9 334.29 1887.4 334.29 1887.4C334.29 1887.4 319.627 1595.48 -54.108 1565.06C-427.843 1534.64 -473.534 1296.93 -473.534 1296.93M1613.53 2604.93C1613.53 2604.93 1036.99 2618.01 701.583 2368.15C366.173 2118.29 325.255 1893.67 325.255 1893.67C325.255 1893.67 307.365 1604.44 -63.4112 1571.55C-434.188 1538.67 -482.207 1302.9 -482.207 1302.9M1601.2 2613.94C1601.2 2613.94 1030.02 2622.57 694.712 2372.63C359.401 2122.69 316.22 1899.94 316.22 1899.94C316.22 1899.94 295.104 1613.39 -72.7143 1578.05C-440.532 1542.7 -490.881 1308.87 -490.881 1308.87M1588.88 2622.95C1588.88 2622.95 1023.06 2627.13 687.841 2377.1C352.628 2127.08 307.185 1906.22 307.185 1906.22C307.185 1906.22 282.842 1622.34 -82.0174 1584.54C-446.877 1546.73 -499.554 1314.83 -499.554 1314.83M1576.56 2631.97C1576.56 2631.97 1016.09 2631.69 680.97 2381.58C345.855 2131.47 298.15 1912.49 298.15 1912.49C298.15 1912.49 270.58 1631.3 -91.3205 1591.03C-453.221 1550.77 -508.227 1320.8 -508.227 1320.8M1564.24 2640.98C1564.24 2640.98 1009.12 2636.25 674.099 2386.06C339.082 2135.87 289.115 1918.76 289.115 1918.76C289.115 1918.76 258.319 1640.25 -100.624 1597.52C-459.566 1554.8 -516.9 1326.76 -516.9 1326.76M1551.92 2649.99C1551.92 2649.99 1002.15 2640.81 667.228 2390.54C332.309 2140.26 280.08 1925.03 280.08 1925.03C280.08 1925.03 246.057 1649.2 -109.927 1604.01C-465.911 1558.83 -525.574 1332.73 -525.574 1332.73M1539.6 2659C1539.6 2659 995.179 2645.38 660.357 2395.02C325.536 2144.65 271.045 1931.31 271.045 1931.31C271.045 1931.31 233.795 1658.15 -119.23 1610.51C-472.255 1562.86 -534.247 1338.69 -534.247 1338.69M1527.28 2668.02C1527.28 2668.02 988.209 2649.94 653.486 2399.49C318.763 2149.05 262.01 1937.58 262.01 1937.58C262.01 1937.58 221.533 1667.11 -128.533 1617C-478.6 1566.89 -542.92 1344.66 -542.92 1344.66M1514.95 2677.03C1514.95 2677.03 981.24 2654.5 646.615 2403.97C311.99 2153.44 252.975 1943.85 252.975 1943.85C252.975 1943.85 209.272 1676.06 -137.836 1623.49C-484.944 1570.92 -551.593 1350.62 -551.593 1350.62M1502.63 2686.04C1502.63 2686.04 974.271 2659.06 639.744 2408.45C305.217 2157.84 243.94 1950.12 243.94 1950.12C243.94 1950.12 197.01 1685.01 -147.139 1629.98C-491.289 1574.95 -560.267 1356.59 -560.267 1356.59" stroke="#EE00E0" stroke-opacity="0.4"/>
</svg>
