<svg width="554" height="332" viewBox="0 0 554 332" fill="none" xmlns="http://www.w3.org/2000/svg">
<g clip-path="url(#clip0_50_2)">
<path d="M519.151 69.5895C526.043 69.5895 532.781 67.5489 538.512 63.7256C544.243 59.9023 548.71 54.4681 551.347 48.1102C553.985 41.7523 554.675 34.7562 553.33 28.0067C551.986 21.2571 548.667 15.0573 543.793 10.1912C538.919 5.32503 532.71 2.01115 525.949 0.668587C519.189 -0.673976 512.182 0.0150761 505.814 2.64861C499.447 5.28214 494.004 9.74188 490.175 15.4638C486.345 21.1858 484.301 27.913 484.301 34.7948C484.312 44.0197 487.987 52.8638 494.52 59.3869C501.053 65.9099 509.911 69.5791 519.151 69.5895ZM519.151 1.4498C525.756 1.4498 532.213 3.40545 537.705 7.06944C543.197 10.7334 547.478 15.9412 550.006 22.0342C552.534 28.1272 553.195 34.8318 551.906 41.3001C550.618 47.7684 547.437 53.7099 542.766 58.3732C538.095 63.0366 532.145 66.2124 525.666 67.499C519.188 68.7857 512.473 68.1253 506.37 65.6015C500.268 63.0777 495.052 58.8038 491.382 53.3203C487.712 47.8367 485.753 41.3898 485.753 34.7948C485.764 25.9542 489.285 17.4786 495.546 11.2274C501.807 4.97616 510.296 1.45982 519.151 1.4498Z" fill="#F2F2F2"/>
<path d="M282.466 49.2926C285.912 49.2926 289.281 48.2722 292.147 46.3606C295.012 44.4489 297.245 41.7318 298.564 38.5529C299.883 35.3739 300.228 31.8759 299.556 28.5011C298.883 25.1264 297.224 22.0265 294.787 19.5934C292.35 17.1603 289.245 15.5034 285.865 14.8321C282.485 14.1608 278.982 14.5053 275.798 15.8221C272.614 17.1389 269.892 19.3687 267.978 22.2297C266.063 25.0907 265.041 28.4543 265.041 31.8952C265.046 36.5077 266.884 40.9297 270.151 44.1912C273.417 47.4527 277.846 49.2873 282.466 49.2926ZM282.466 15.9476C285.625 15.9476 288.713 16.8829 291.34 18.6353C293.966 20.3876 296.014 22.8783 297.223 25.7923C298.432 28.7064 298.748 31.9129 298.132 35.0064C297.515 38.1 295.994 40.9415 293.76 43.1718C291.526 45.4022 288.68 46.921 285.582 47.5364C282.484 48.1517 279.272 47.8359 276.353 46.6289C273.435 45.4218 270.94 43.3778 269.185 40.7552C267.43 38.1326 266.493 35.0493 266.493 31.8952C266.498 27.6671 268.182 23.6135 271.177 20.6238C274.171 17.6341 278.231 15.9524 282.466 15.9476Z" fill="#F2F2F2"/>
<path d="M159.767 134.105C163.644 134.105 167.434 132.957 170.658 130.806C173.882 128.656 176.394 125.599 177.878 122.023C179.362 118.446 179.75 114.511 178.993 110.714C178.237 106.918 176.37 103.43 173.629 100.693C170.887 97.956 167.394 96.092 163.592 95.3368C159.789 94.5816 155.848 94.9692 152.266 96.4505C148.684 97.9319 145.622 100.44 143.468 103.659C141.314 106.878 140.165 110.662 140.165 114.533C140.17 119.722 142.238 124.697 145.913 128.366C149.588 132.035 154.57 134.099 159.767 134.105ZM159.767 96.4105C163.357 96.4105 166.866 97.4733 169.851 99.4646C172.836 101.456 175.163 104.286 176.536 107.598C177.91 110.909 178.27 114.553 177.569 118.068C176.869 121.584 175.14 124.813 172.602 127.347C170.063 129.882 166.829 131.608 163.308 132.307C159.787 133.006 156.138 132.647 152.821 131.276C149.505 129.904 146.67 127.581 144.676 124.601C142.681 121.621 141.617 118.117 141.617 114.533C141.622 109.728 143.536 105.122 146.939 101.724C150.342 98.3269 154.955 96.4159 159.767 96.4105Z" fill="#F2F2F2"/>
<path d="M0.72612 332H164.082C164.275 332 164.459 331.924 164.596 331.788C164.732 331.652 164.808 331.467 164.808 331.275C164.808 331.083 164.732 330.898 164.596 330.762C164.459 330.627 164.275 330.55 164.082 330.55H0.72612C0.533569 330.55 0.348862 330.627 0.212708 330.762C0.0765533 330.898 9.15527e-05 331.083 9.15527e-05 331.275C9.15527e-05 331.467 0.0765533 331.652 0.212708 331.788C0.348862 331.924 0.533569 332 0.72612 332Z" fill="#CCCCCC"/>
<path d="M88.6769 111.087C78.8285 111.087 70.8449 103.116 70.8449 93.2832C70.8449 83.4503 78.8285 75.4791 88.6769 75.4791C98.5252 75.4791 106.509 83.4503 106.509 93.2832C106.509 103.116 98.5252 111.087 88.6769 111.087Z" fill="#FFB8B8"/>
<path d="M86.8269 304.703L95.2547 307.56L110.307 276.463L97.8684 272.245L86.8269 304.703Z" fill="#FFB8B8"/>
<path d="M102.093 307.198L85.8386 301.686L82.3625 311.904L108.851 320.887C109.307 319.545 109.494 318.126 109.402 316.712C109.309 315.298 108.939 313.916 108.311 312.645C107.684 311.374 106.811 310.238 105.744 309.304C104.677 308.369 103.437 307.654 102.093 307.198Z" fill="#2F2E41"/>
<path d="M67.784 322.268L76.6734 322.714L82.6276 288.691L69.5068 288.032L67.784 322.268Z" fill="#FFB8B8"/>
<path d="M83.1511 320.497L66.0066 319.637L65.4641 330.414L93.4032 331.816C93.4744 330.401 93.2658 328.985 92.7891 327.651C92.3124 326.316 91.5771 325.088 90.6251 324.037C89.6731 322.986 88.5231 322.132 87.2407 321.525C85.9583 320.917 84.5686 320.568 83.1511 320.497Z" fill="#2F2E41"/>
<path d="M120.686 209.225C119.889 208.517 119.257 207.642 118.835 206.663C118.413 205.684 118.211 204.625 118.243 203.56C118.276 202.495 118.542 201.45 119.022 200.498C119.503 199.547 120.187 198.712 121.026 198.053L112.55 173.57L125.612 176.903L131.658 199.641C132.674 201.122 133.11 202.922 132.885 204.702C132.66 206.482 131.788 208.118 130.436 209.299C129.083 210.481 127.344 211.125 125.547 211.112C123.75 211.098 122.02 210.427 120.686 209.225Z" fill="#FFB8B8"/>
<path d="M68.6147 312.01C68.7297 312.01 68.8446 312.004 68.9589 311.992L81.0259 310.716C81.7673 310.642 82.4604 310.315 82.989 309.79C83.5175 309.266 83.8493 308.576 83.9286 307.836L93.2542 224.829L100.002 247.543L87.4212 292.184C87.2931 292.639 87.2654 293.116 87.34 293.582C87.4146 294.049 87.5897 294.493 87.8533 294.885C88.1169 295.278 88.4626 295.608 88.8666 295.854C89.2705 296.099 89.7232 296.254 90.1931 296.308L102.425 297.712C103.204 297.798 103.988 297.603 104.635 297.162C105.283 296.722 105.751 296.064 105.956 295.309L119.321 245.072C119.431 244.659 119.459 244.228 119.402 243.805L113.395 198.718L68.5888 202.305L65.349 308.649C65.3356 309.085 65.4102 309.52 65.5683 309.927C65.7264 310.334 65.9648 310.706 66.2694 311.019C66.574 311.333 66.9385 311.582 67.3413 311.752C67.7442 311.923 68.1772 312.01 68.6147 312.01Z" fill="#2F2E41"/>
<path d="M84.103 210.014C99.1142 210.014 116.11 204.223 117.139 203.868L117.436 203.765L100.502 117.007L100.19 117.02C93.4793 117.291 75.1649 117.431 74.9805 117.432L74.6519 117.435L67.593 193.997L66.3313 205.195L66.4859 205.32C70.8041 208.806 77.2465 210.014 84.103 210.014Z" fill="#D948EF"/>
<path d="M111.222 202.517L121.814 198.257L116.416 133.057C116.286 131.45 115.796 129.892 114.982 128.499C114.169 127.106 113.052 125.913 111.715 125.009L106.141 121.221C106.299 120.686 106.327 120.121 106.224 119.572C106.12 119.024 105.888 118.508 105.546 118.066C105.204 117.625 104.762 117.271 104.256 117.033C103.75 116.795 103.195 116.68 102.637 116.698L101.04 116.75C100.737 116.545 100.379 116.437 100.013 116.44C99.6468 116.443 99.2901 116.556 98.9897 116.764C98.6892 116.973 98.4589 117.267 98.329 117.609C98.199 117.95 98.1756 118.323 98.2616 118.678L98.6122 125.586L111.222 202.517Z" fill="#2F2E41"/>
<path d="M116.567 190.828L130.397 190.247L125.917 161.474L122.204 134.4C122.131 133.428 121.839 132.485 121.35 131.641C120.86 130.798 120.186 130.076 119.378 129.529C118.57 128.982 117.648 128.624 116.682 128.483C115.716 128.342 114.73 128.42 113.799 128.713C112.348 129.168 111.104 130.117 110.284 131.396C109.464 132.675 109.122 134.2 109.316 135.706L113.076 165.04L116.567 190.828Z" fill="#2F2E41"/>
<path d="M94.6684 203.514L94.7623 203.223C94.8265 203.024 101.059 183.063 90.6302 159.243L85.4006 133.273L80.9314 116.967C80.8477 116.675 80.697 116.407 80.4914 116.184C80.2858 115.961 80.0309 115.789 79.747 115.682C79.4134 115.566 79.0531 115.552 78.7112 115.639C78.3692 115.727 78.0607 115.913 77.8241 116.175C74.7089 115.262 71.3601 115.596 68.4877 117.107L62.2114 120.408C60.8159 121.142 59.7036 122.318 59.0491 123.75C58.3946 125.183 58.2348 126.793 58.5946 128.326L67.173 164.877L63.0029 199.017L94.6684 203.514Z" fill="#2F2E41"/>
<path d="M85.5347 189.441C84.4736 189.556 83.4002 189.438 82.39 189.094C81.3798 188.75 80.4575 188.189 79.6879 187.45C78.9183 186.712 78.3202 185.814 77.9358 184.82C77.5514 183.826 77.39 182.76 77.4629 181.696L58.0373 167.329L64.8275 164.114L85.7744 174.888C87.5551 175.128 89.1855 176.013 90.3567 177.374C91.5279 178.734 92.1584 180.477 92.1289 182.271C92.0994 184.065 91.4118 185.785 90.1964 187.107C88.9811 188.429 87.3224 189.259 85.5347 189.441Z" fill="#FFB8B8"/>
<path d="M73.3562 183.01L79.917 170.782L63.7359 160.149L71.6322 131.871C71.9485 130.739 72.0275 129.554 71.8645 128.39C71.7014 127.226 71.2998 126.108 70.6846 125.106C70.0693 124.103 69.2538 123.239 68.2889 122.565C67.3239 121.892 66.2303 121.425 65.0763 121.192C63.037 120.787 60.9195 121.133 59.1169 122.168C57.3144 123.204 55.9492 124.857 55.2749 126.821L44.6206 158.089C44.401 158.733 44.3887 159.43 44.5855 160.082C44.7823 160.733 45.1784 161.307 45.7182 161.723L73.3562 183.01Z" fill="#2F2E41"/>
<path d="M87.415 97.0595C89.5526 97.3372 91.165 95.1535 91.9129 93.1349C92.6608 91.1163 93.2306 88.7663 95.0891 87.6759C97.6282 86.1862 100.877 87.9779 103.781 87.4864C107.06 86.9314 109.192 83.4617 109.359 80.1452C109.526 76.8288 108.204 73.639 106.907 70.5813L106.454 74.3813C106.515 73.0934 106.243 71.8115 105.666 70.6582C105.088 69.505 104.224 68.5189 103.156 67.7944L103.739 73.3705C103.615 72.6012 103.34 71.8639 102.93 71.2011C102.52 70.5382 101.982 69.9627 101.349 69.5078C100.715 69.0528 99.9977 68.7271 99.2377 68.5497C98.4778 68.3722 97.6902 68.3463 96.9202 68.4734L97.0122 71.7958C93.2248 71.3462 89.4044 70.8959 85.6059 71.2385C81.8074 71.581 77.9823 72.781 75.1033 75.2787C70.7968 79.0149 69.224 85.1669 69.7521 90.8387C70.2801 96.5105 72.625 101.839 75.069 106.986C75.684 108.281 76.5344 109.742 77.9603 109.907C79.2415 110.055 80.4138 108.986 80.8121 107.761C81.119 106.505 81.107 105.191 80.7775 103.94C80.4172 102.029 79.963 100.075 80.3017 98.1589C80.6405 96.2432 82.0208 94.3502 83.9549 94.1154C85.889 93.8806 87.8681 96.088 86.9382 97.7974L87.415 97.0595Z" fill="#2F2E41"/>
<path d="M320.72 292.549L327.662 289.631L332.423 254.889H395.835L400.996 289.489L407.206 292.589C407.503 292.738 407.741 292.982 407.882 293.282C408.023 293.583 408.058 293.922 407.982 294.245C407.905 294.567 407.722 294.855 407.462 295.061C407.201 295.267 406.879 295.379 406.546 295.379H321.292C320.952 295.379 320.622 295.261 320.358 295.046C320.095 294.831 319.914 294.531 319.847 294.198C319.779 293.865 319.83 293.518 319.989 293.218C320.148 292.917 320.406 292.681 320.72 292.549Z" fill="#E6E6E6"/>
<path d="M208.034 259.511H519.527C521.162 259.507 522.728 258.856 523.882 257.701C525.037 256.546 525.685 254.981 525.685 253.349V209.493H201.877V253.349C201.877 254.981 202.525 256.546 203.68 257.701C204.834 258.856 206.4 259.507 208.034 259.511Z" fill="#CCCCCC"/>
<path d="M201.551 230.221H525.969V42.5707C525.967 40.6014 525.182 38.7135 523.788 37.321C522.393 35.9285 520.502 35.1453 518.53 35.1431H208.991C207.019 35.1453 205.128 35.9285 203.733 37.321C202.338 38.7135 201.554 40.6014 201.551 42.5707V230.221Z" fill="#3F3D56"/>
<path d="M220.928 216.601H506.593C508.114 216.6 509.571 215.996 510.647 214.922C511.722 213.849 512.327 212.393 512.328 210.875V54.489C512.327 52.9707 511.722 51.5152 510.647 50.4416C509.572 49.368 508.114 48.7641 506.593 48.7624H220.928C219.407 48.7641 217.949 49.368 216.874 50.4416C215.799 51.5152 215.194 52.9707 215.192 54.489V210.875C215.194 212.393 215.799 213.849 216.874 214.922C217.949 215.996 219.407 216.6 220.928 216.601Z" fill="white"/>
<path d="M223.616 295.741H500.233C500.425 295.741 500.61 295.665 500.746 295.529C500.882 295.393 500.959 295.209 500.959 295.016C500.959 294.824 500.882 294.64 500.746 294.504C500.61 294.368 500.425 294.291 500.233 294.291H223.616C223.424 294.291 223.239 294.368 223.103 294.504C222.967 294.64 222.89 294.824 222.89 295.016C222.89 295.209 222.967 295.393 223.103 295.529C223.239 295.665 223.424 295.741 223.616 295.741Z" fill="#CCCCCC"/>
<path d="M247.765 197.17H479.756C479.949 197.17 480.133 197.094 480.269 196.958C480.406 196.822 480.482 196.638 480.482 196.445V85.4259C480.482 85.2337 480.406 85.0493 480.269 84.9134C480.133 84.7774 479.949 84.701 479.756 84.701C479.563 84.701 479.379 84.7774 479.243 84.9134C479.106 85.0493 479.03 85.2337 479.03 85.4259V195.72H247.765C247.572 195.72 247.387 195.797 247.251 195.933C247.115 196.069 247.039 196.253 247.039 196.445C247.039 196.638 247.115 196.822 247.251 196.958C247.387 197.094 247.572 197.17 247.765 197.17Z" fill="#3F3D56"/>
<path d="M430.19 189.197H451.29C451.861 189.196 452.409 188.969 452.813 188.566C453.217 188.162 453.445 187.615 453.445 187.045V158.003C453.445 157.433 453.217 156.886 452.813 156.482C452.409 156.079 451.861 155.852 451.29 155.852H430.19C429.618 155.852 429.07 156.079 428.666 156.482C428.262 156.886 428.035 157.433 428.034 158.003V187.045C428.035 187.615 428.262 188.162 428.666 188.566C429.07 188.969 429.618 189.196 430.19 189.197Z" fill="#D948EF"/>
<path d="M391.71 189.196H412.811C413.382 189.196 413.93 188.969 414.334 188.566C414.738 188.162 414.965 187.615 414.966 187.045V130.457C414.965 129.887 414.738 129.34 414.334 128.937C413.93 128.533 413.382 128.306 412.811 128.306H391.71C391.139 128.306 390.591 128.533 390.187 128.937C389.783 129.34 389.556 129.887 389.555 130.457V187.045C389.556 187.615 389.783 188.162 390.187 188.566C390.591 188.969 391.139 189.196 391.71 189.196Z" fill="#D948EF"/>
<path d="M353.231 189.197H374.331C374.903 189.196 375.45 188.969 375.854 188.566C376.258 188.162 376.486 187.615 376.486 187.045V158.003C376.486 157.433 376.258 156.886 375.854 156.482C375.45 156.079 374.903 155.852 374.331 155.852H353.231C352.659 155.852 352.112 156.079 351.707 156.482C351.303 156.886 351.076 157.433 351.075 158.003V187.045C351.076 187.615 351.303 188.162 351.707 188.566C352.112 188.969 352.659 189.196 353.231 189.197Z" fill="#D948EF"/>
<path d="M314.751 189.197H335.852C336.41 189.209 336.95 188.999 337.354 188.614C337.758 188.229 337.993 187.7 338.007 187.142V119.487C337.993 118.929 337.758 118.4 337.354 118.015C336.95 117.63 336.41 117.42 335.852 117.432H314.751C314.193 117.42 313.652 117.63 313.249 118.015C312.845 118.4 312.61 118.929 312.596 119.487V187.142C312.61 187.7 312.845 188.229 313.249 188.614C313.652 188.999 314.193 189.209 314.751 189.197Z" fill="#D948EF"/>
<path d="M276.272 189.196H297.372C297.944 189.196 298.491 188.969 298.896 188.566C299.3 188.162 299.527 187.615 299.528 187.045V100.012C299.527 99.4414 299.3 98.8945 298.896 98.4911C298.491 98.0878 297.944 97.8609 297.372 97.8602H276.272C275.7 97.8609 275.153 98.0878 274.749 98.4911C274.345 98.8945 274.117 99.4414 274.117 100.012V187.045C274.117 187.615 274.345 188.162 274.749 188.566C275.153 188.969 275.7 189.196 276.272 189.196Z" fill="#D948EF"/>
<path d="M440.74 147.153C438.334 147.153 436.384 145.206 436.384 142.803C436.384 140.401 438.334 138.454 440.74 138.454C443.146 138.454 445.096 140.401 445.096 142.803C445.096 145.206 443.146 147.153 440.74 147.153Z" fill="#3F3D56"/>
<path d="M402.26 118.882C399.855 118.882 397.904 116.935 397.904 114.533C397.904 112.131 399.855 110.183 402.26 110.183C404.666 110.183 406.617 112.131 406.617 114.533C406.617 116.935 404.666 118.882 402.26 118.882Z" fill="#3F3D56"/>
<path d="M363.781 147.153C361.375 147.153 359.425 145.206 359.425 142.803C359.425 140.401 361.375 138.454 363.781 138.454C366.187 138.454 368.137 140.401 368.137 142.803C368.137 145.206 366.187 147.153 363.781 147.153Z" fill="#3F3D56"/>
<path d="M325.301 105.109C322.896 105.109 320.945 103.162 320.945 100.76C320.945 98.3578 322.896 96.4105 325.301 96.4105C327.707 96.4105 329.658 98.3578 329.658 100.76C329.658 103.162 327.707 105.109 325.301 105.109Z" fill="#3F3D56"/>
<path d="M286.822 89.1616C284.416 89.1616 282.466 87.2143 282.466 84.8122C282.466 82.4102 284.416 80.4629 286.822 80.4629C289.228 80.4629 291.178 82.4102 291.178 84.8122C291.178 87.2143 289.228 89.1616 286.822 89.1616Z" fill="#3F3D56"/>
<path d="M363.689 143.778L402.26 114.933L440.304 143.383L441.175 142.224L402.26 113.121L363.872 141.829L325.726 100.149L325.573 100.087L287.094 84.6078L286.55 85.9525L324.877 101.37L363.689 143.778Z" fill="#3F3D56"/>
</g>
<defs>
<clipPath id="clip0_50_2">
<rect width="554" height="332" fill="white" transform="matrix(-1 0 0 1 554 0)"/>
</clipPath>
</defs>
</svg>
