<svg width="1440" height="488" viewBox="0 0 1440 488" fill="none" xmlns="http://www.w3.org/2000/svg">
<g clip-path="url(#clip0_105_36)">
<rect y="464" width="1440" height="5" fill="#D9D9D9"/>
<path d="M175.965 452.402L186.69 452.401L191.793 411.181L175.963 411.181L175.965 452.402Z" fill="#FFB6B6"/>
<path d="M173.229 462.761L207.812 462.76V462.324C207.812 458.767 206.394 455.355 203.87 452.84C201.345 450.325 197.922 448.912 194.352 448.912H194.351L173.229 448.912L173.229 462.761Z" fill="#2F2E41"/>
<path d="M214.295 277.932L208.206 374.6L187.762 442.644L171.923 443.786L179.876 360.859L176.389 305.787C176.389 305.787 159.857 293.508 168.998 278.727L214.295 277.932Z" fill="#2F2E41"/>
<path d="M168.966 452.402L179.692 452.401L184.794 411.181L168.965 411.181L168.966 452.402Z" fill="#FFB6B6"/>
<path d="M166.23 462.761L200.813 462.76V462.324C200.813 458.767 199.395 455.355 196.871 452.84C194.346 450.325 190.923 448.912 187.353 448.912H187.352L166.23 448.912L166.23 462.761Z" fill="#2F2E41"/>
<path d="M207.296 277.932L201.207 374.6L180.763 442.644L164.924 443.786L172.877 360.859L169.39 305.787C169.39 305.787 152.858 293.508 161.999 278.727L207.296 277.932Z" fill="#2F2E41"/>
<path d="M174.288 292.902C192.552 292.902 214.049 281.78 215.295 281.126L215.642 280.945L167 165.511L152.962 164.615C151.364 163.863 149.593 163.549 147.832 163.707C146.071 163.864 144.384 164.487 142.945 165.511C141.507 166.535 140.368 167.922 139.648 169.531C138.927 171.14 138.651 172.911 138.846 174.662L147.085 248.303L155.685 286.445L155.776 286.534C160.522 291.207 167.16 292.902 174.288 292.902Z" fill="#3F3D56"/>
<path d="M241.273 222.363C240.187 221.677 238.963 221.236 237.687 221.072C236.412 220.908 235.116 221.025 233.89 221.414C232.665 221.803 231.54 222.455 230.595 223.324C229.65 224.194 228.908 225.259 228.421 226.445L197.205 224.746L205.395 238.725L233.783 238.195C235.836 238.879 238.07 238.788 240.061 237.94C242.052 237.092 243.662 235.546 244.585 233.594C245.509 231.642 245.681 229.421 245.071 227.351C244.46 225.281 243.109 223.506 241.273 222.363Z" fill="#FFB6B6"/>
<path d="M179.67 244.245L210.953 243.45L210.549 222.831L195.757 218.14L171.493 184.231C170.278 182.533 168.734 181.095 166.952 180.002C165.17 178.909 163.186 178.183 161.117 177.867C159.048 177.551 156.937 177.652 154.908 178.163C152.879 178.675 150.974 179.586 149.305 180.844C147.635 182.102 146.236 183.68 145.19 185.486C144.143 187.292 143.471 189.289 143.212 191.358C142.954 193.427 143.114 195.527 143.684 197.534C144.254 199.54 145.222 201.412 146.531 203.039L179.67 244.245Z" fill="#3F3D56"/>
<path d="M156.133 159.753C144.941 162.309 133.804 155.341 131.257 144.19C128.71 133.039 135.718 121.926 146.909 119.37C158.101 116.814 169.239 123.782 171.786 134.933C174.332 146.085 167.325 157.197 156.133 159.753Z" fill="#FFB6B6"/>
<path d="M173.315 116.88C170.793 115.258 167.818 114.475 164.818 114.645C161.866 114.685 158.736 115.203 156.082 113.958C153.06 112.511 151.053 108.91 147.718 108.769C146.29 108.807 144.901 109.242 143.707 110.025C139.036 112.678 135.259 116.652 132.855 121.445C132.335 122.779 131.563 124.003 130.582 125.049C129.955 125.5 129.352 125.984 128.777 126.498C128.184 127.231 127.784 128.1 127.613 129.026C126.39 134.095 127.06 139.431 129.499 144.037C130.945 146.756 132.974 149.118 134.476 151.842C135.977 154.566 141.109 159.228 141.699 157.645C142.289 156.062 143.155 154.514 143.287 152.811C143.538 149.465 141.948 146.518 143.907 143.787C145.118 142.097 147.659 140.569 149.087 142.067C149.649 142.645 149.818 143.501 150.327 144.117C151.328 145.319 153.386 145.136 154.529 144.052C155.603 142.884 156.197 141.357 156.191 139.774C156.648 132.623 159.072 127.635 166.915 128.857C169.838 129.316 173.159 129.318 175.315 126.894C178.158 123.705 176.375 119.078 173.315 116.88Z" fill="#2F2E41"/>
<path d="M199.457 277.025C199.112 275.787 198.501 274.639 197.666 273.661C196.83 272.683 195.791 271.9 194.622 271.366C193.453 270.831 192.181 270.559 190.897 270.569C189.613 270.579 188.348 270.87 187.191 271.422L165.197 249.205L161.882 265.065L183.276 283.73C184.339 285.616 186.056 287.048 188.101 287.756C190.146 288.464 192.377 288.399 194.371 287.573C196.366 286.746 197.985 285.216 198.922 283.272C199.859 281.328 200.05 279.105 199.457 277.025Z" fill="#FFB6B6"/>
<path d="M139.109 251.885L162.828 272.298L176.371 256.746L168.558 243.338L173.341 201.917C173.58 199.843 173.401 197.74 172.814 195.734C172.227 193.727 171.244 191.857 169.923 190.234C168.602 188.611 166.969 187.269 165.122 186.286C163.275 185.302 161.251 184.699 159.17 184.51C157.088 184.322 154.992 184.552 153.004 185.188C151.016 185.824 149.177 186.852 147.596 188.212C146.015 189.572 144.724 191.236 143.8 193.106C142.875 194.976 142.335 197.013 142.213 199.098L139.109 251.885Z" fill="#3F3D56"/>
<path d="M1233.86 282.179C1234.8 282.074 1235.7 281.763 1236.51 281.266C1237.32 280.769 1238 280.098 1238.53 279.302C1239.05 278.506 1239.4 277.604 1239.54 276.658C1239.68 275.713 1239.61 274.747 1239.35 273.83L1258.03 260.318L1246.9 255.978L1230.86 269.474C1229.37 270.03 1228.13 271.12 1227.38 272.54C1226.63 273.959 1226.42 275.608 1226.79 277.174C1227.16 278.74 1228.08 280.114 1229.38 281.037C1230.69 281.959 1232.28 282.366 1233.86 282.179Z" fill="#FFB7B7"/>
<path d="M1244.23 273.28L1238.03 262.563L1238.16 262.411L1263.17 233.586L1282.58 200.061L1299.44 202.237L1299.69 207.397L1299.64 207.474L1272.85 248.243L1272.83 248.268L1244.23 273.28Z" fill="#3F3D56"/>
<path d="M1239.01 281.786L1205.51 300.981L1181 257.125L1214.5 237.93L1239.01 281.786Z" fill="#E5E5E5"/>
<path d="M1213.57 254.621L1195.61 264.915L1197.36 268.04L1215.32 257.746L1213.57 254.621Z" fill="#BF27D3"/>
<path d="M1218.11 262.746L1200.15 273.039L1201.9 276.164L1219.86 265.871L1218.11 262.746Z" fill="#BF27D3"/>
<path d="M1222.65 270.871L1204.69 281.164L1206.44 284.289L1224.4 273.996L1222.65 270.871Z" fill="#BF27D3"/>
<path d="M1326.84 454.642H1317.31L1312.77 417.406L1326.85 417.407L1326.84 454.642Z" fill="#FFB7B7"/>
<path d="M1329.28 464L1298.53 463.999V463.605C1298.53 460.392 1299.8 457.31 1302.04 455.038C1304.28 452.766 1307.33 451.49 1310.5 451.49L1329.28 451.49L1329.28 464Z" fill="#2F2E41"/>
<path d="M1244.79 454.326L1235.52 452.084L1239.65 414.8L1253.33 418.109L1244.79 454.326Z" fill="#FFB7B7"/>
<path d="M1245.01 464L1215.11 456.77L1215.2 456.388C1215.94 453.262 1217.87 450.561 1220.57 448.879C1223.28 447.197 1226.53 446.671 1229.62 447.417L1247.88 451.832L1245.01 464Z" fill="#2F2E41"/>
<path d="M1281.84 183.038V166.788C1281.84 163.927 1282.4 161.094 1283.48 158.451C1284.56 155.808 1286.14 153.406 1288.14 151.382C1290.14 149.359 1292.51 147.754 1295.12 146.659C1297.73 145.564 1300.52 145 1303.35 145C1306.17 145 1308.97 145.564 1311.58 146.659C1314.19 147.754 1316.56 149.359 1318.56 151.382C1320.56 153.406 1322.14 155.808 1323.22 158.451C1324.3 161.094 1324.86 163.927 1324.85 166.788V183.038C1324.85 183.813 1324.55 184.557 1324.01 185.105C1323.47 185.653 1322.73 185.962 1321.97 185.963H1284.73C1283.97 185.962 1283.23 185.653 1282.69 185.105C1282.15 184.557 1281.85 183.813 1281.84 183.038Z" fill="#2F2E41"/>
<path d="M1298.04 185.716C1306.75 185.716 1313.81 178.568 1313.81 169.751C1313.81 160.934 1306.75 153.787 1298.04 153.787C1289.34 153.787 1282.28 160.934 1282.28 169.751C1282.28 178.568 1289.34 185.716 1298.04 185.716Z" fill="#FFB7B7"/>
<path d="M1276.76 168.088C1276.76 163.521 1278.56 159.143 1281.74 155.914C1284.93 152.685 1289.26 150.868 1293.77 150.863H1296.98C1301.49 150.868 1305.81 152.685 1309 155.914C1312.19 159.143 1313.98 163.521 1313.99 168.088V168.413H1307.21L1304.89 161.853L1304.43 168.413H1300.92L1299.76 165.103L1299.52 168.413H1276.76V168.088Z" fill="#2F2E41"/>
<path d="M1307.24 254.01L1267.09 252.463L1264.85 225.87C1263.12 221.003 1263.09 216.824 1264.77 213.449C1266.21 210.678 1268.63 208.559 1271.55 207.516L1280.33 196.774C1281.46 195.393 1282.88 194.283 1284.49 193.526C1286.09 192.768 1287.84 192.381 1289.61 192.392L1312.44 192.55C1312.99 192.215 1316.32 190.498 1322.9 193.387C1330.04 196.52 1328.38 207.403 1328.37 207.512L1328.35 207.614L1328.27 207.681L1313.09 220.626L1307.24 254.01Z" fill="#3F3D56"/>
<path d="M1267.42 249.605L1248.43 284.66L1234.03 444.142L1250.3 449.172L1279.09 324.416L1312.5 445.632L1332 446.127L1318.72 306.242L1307.12 252.082L1267.42 249.605Z" fill="#2F2E41"/>
<path d="M1318.15 306.356C1318.85 305.717 1319.41 304.93 1319.78 304.051C1320.15 303.171 1320.32 302.219 1320.29 301.264C1320.26 300.308 1320.02 299.371 1319.59 298.519C1319.16 297.667 1318.55 296.92 1317.81 296.332L1325.22 274.331L1313.67 277.368L1308.4 297.795C1307.51 299.127 1307.13 300.745 1307.34 302.341C1307.54 303.938 1308.32 305.402 1309.52 306.458C1310.72 307.513 1312.26 308.086 1313.85 308.067C1315.44 308.048 1316.97 307.44 1318.15 306.356Z" fill="#FFB7B7"/>
<path d="M1321.46 293.005L1310.25 287.949L1314.02 249.57L1310.52 210.87L1325.47 202.695L1328.64 206.743L1328.64 206.835L1330.32 255.771L1330.32 255.809L1321.46 293.005Z" fill="#3F3D56"/>
<path d="M898.964 234.018H493.171C488.884 234.013 484.773 232.31 481.742 229.282C478.71 226.254 477.005 222.148 477 217.866V16.1516C477.005 11.8694 478.71 7.76397 481.742 4.73601C484.773 1.70806 488.884 0.00482496 493.171 0H898.964C903.251 0.00482702 907.361 1.70806 910.393 4.73601C913.425 7.76397 915.13 11.8694 915.135 16.1516V217.866C915.13 222.148 913.425 226.254 910.393 229.282C907.361 232.31 903.251 234.013 898.964 234.018Z" fill="#F0F0F0"/>
<path d="M943.508 289.054H537.715C533.428 289.049 529.317 287.346 526.286 284.318C523.254 281.29 521.549 277.185 521.544 272.902V71.1881C521.549 66.9059 523.254 62.8005 526.286 59.7725C529.317 56.7445 533.428 55.0413 537.715 55.0365H943.508C947.795 55.0413 951.905 56.7445 954.937 59.7725C957.969 62.8004 959.674 66.9059 959.679 71.1881V272.902C959.674 277.185 957.969 281.29 954.937 284.318C951.905 287.346 947.795 289.049 943.508 289.054Z" fill="white"/>
<path d="M943.508 289.054H537.715C533.428 289.049 529.317 287.346 526.286 284.318C523.254 281.29 521.549 277.185 521.544 272.902V71.1881C521.549 66.9059 523.254 62.8005 526.286 59.7725C529.317 56.7445 533.428 55.0413 537.715 55.0365H943.508C947.795 55.0413 951.905 56.7445 954.937 59.7725C957.968 62.8004 959.674 66.9059 959.679 71.1881V272.902C959.674 277.185 957.969 281.29 954.937 284.318C951.905 287.346 947.795 289.049 943.508 289.054ZM537.715 57.3767C534.049 57.3808 530.534 58.8372 527.942 61.4265C525.349 64.0157 523.891 67.5263 523.887 71.1881V272.902C523.891 276.564 525.349 280.075 527.942 282.664C530.534 285.253 534.049 286.71 537.715 286.714H943.508C947.174 286.71 950.689 285.253 953.281 282.664C955.873 280.075 957.332 276.564 957.336 272.902V71.1881C957.331 67.5263 955.873 64.0157 953.281 61.4265C950.689 58.8373 947.174 57.3808 943.508 57.3767H537.715Z" fill="#E4E4E4"/>
<path d="M568.876 253.739H893.362V198.189C893.312 192.332 892.092 186.543 889.773 181.163C887.453 175.783 884.081 170.92 879.855 166.859L879.766 166.773C873.971 160.965 854.602 146.224 834.563 147.474C823.977 148.132 814.914 153.228 807.626 162.619C784.941 191.864 755.142 181.992 739.398 173.505C725.523 166.024 711.353 162.513 697.279 163.072C677.568 163.842 649.825 171.094 629.592 201.275C621.865 212.793 605.059 228.427 568.876 237.615L568.876 253.739Z" fill="#BF27D3"/>
<path d="M911.721 255.031H569.501C569.217 255.031 568.944 254.918 568.743 254.717C568.543 254.517 568.43 254.245 568.43 253.961V90.1298C568.43 89.8461 568.543 89.574 568.743 89.3734C568.944 89.1728 569.217 89.0601 569.501 89.0601C569.785 89.0601 570.057 89.1728 570.258 89.3734C570.459 89.574 570.572 89.8461 570.572 90.1298V252.891H911.721C912.005 252.891 912.277 253.004 912.478 253.204C912.679 253.405 912.792 253.677 912.792 253.961C912.792 254.245 912.679 254.517 912.478 254.717C912.277 254.918 912.005 255.031 911.721 255.031Z" fill="#3F3D56"/>
<path d="M696.564 171.173C700.113 171.173 702.99 168.299 702.99 164.754C702.99 161.21 700.113 158.336 696.564 158.336C693.015 158.336 690.138 161.21 690.138 164.754C690.138 168.299 693.015 171.173 696.564 171.173Z" fill="#3F3D56"/>
<path d="M822.597 154.388C826.146 154.388 829.023 151.515 829.023 147.97C829.023 144.425 826.146 141.552 822.597 141.552C819.048 141.552 816.171 144.425 816.171 147.97C816.171 151.515 819.048 154.388 822.597 154.388Z" fill="#3F3D56"/>
<path d="M759.58 189.006C763.129 189.006 766.006 186.133 766.006 182.588C766.006 179.043 763.129 176.17 759.58 176.17C756.031 176.17 753.154 179.043 753.154 182.588C753.154 186.133 756.031 189.006 759.58 189.006Z" fill="#3F3D56"/>
<path d="M633.547 198.448C637.096 198.448 639.973 195.574 639.973 192.029C639.973 188.485 637.096 185.611 633.547 185.611C629.998 185.611 627.121 188.485 627.121 192.029C627.121 195.574 629.998 198.448 633.547 198.448Z" fill="#3F3D56"/>
<path d="M885.614 177.467C889.163 177.467 892.04 174.593 892.04 171.049C892.04 167.504 889.163 164.63 885.614 164.63C882.066 164.63 879.188 167.504 879.188 171.049C879.188 174.593 882.066 177.467 885.614 177.467Z" fill="#3F3D56"/>
<path d="M973.545 300.787C972.716 299.989 972.072 299.019 971.658 297.945C971.245 296.871 971.072 295.72 971.152 294.572C971.232 293.425 971.563 292.309 972.122 291.303C972.681 290.297 973.454 289.425 974.386 288.75L966.286 261.983L980.23 266.131L985.784 290.914C986.817 292.553 987.211 294.514 986.892 296.425C986.574 298.335 985.564 300.063 984.056 301.28C982.547 302.497 980.644 303.119 978.707 303.028C976.77 302.937 974.933 302.14 973.545 300.787Z" fill="#9E616A"/>
<path d="M838.854 188.274C839.178 189.378 839.74 190.397 840.5 191.26C841.261 192.123 842.202 192.809 843.257 193.269C844.312 193.729 845.456 193.952 846.607 193.923C847.758 193.894 848.889 193.613 849.921 193.1L869.91 212.66L872.693 198.392L853.283 182.004C852.307 180.331 850.751 179.075 848.909 178.473C847.066 177.871 845.066 177.965 843.288 178.738C841.509 179.511 840.075 180.908 839.258 182.666C838.441 184.423 838.297 186.419 838.854 188.274Z" fill="#9E616A"/>
<path d="M959.69 453.7H950.084L945.515 416.696L959.691 416.697L959.69 453.7Z" fill="#9E616A"/>
<path d="M962.139 463L931.166 462.999V462.608C931.166 459.414 932.436 456.352 934.697 454.094C936.958 451.836 940.024 450.568 943.221 450.568L962.139 450.568L962.139 463Z" fill="#2F2E41"/>
<path d="M928.256 453.396L919.099 450.5L925.924 413.844L939.44 418.118L928.256 453.396Z" fill="#9E616A"/>
<path d="M927.782 463L898.254 453.663L898.372 453.29C899.337 450.246 901.474 447.709 904.311 446.238C907.149 444.767 910.456 444.482 913.504 445.445L931.539 451.148L927.782 463Z" fill="#2F2E41"/>
<path d="M916.88 272.848C916.88 272.848 902.628 295.198 907.664 315.146C912.701 335.095 918.185 373.438 918.185 373.438L945.492 438.343L965.848 437.513L945.633 360.988L946.433 309.823C946.433 309.823 960.482 285.37 957.746 277.757C955.01 270.145 916.88 272.848 916.88 272.848Z" fill="#2F2E41"/>
<path d="M963.442 280.839C963.442 280.839 965.195 303.011 959.711 312.401C954.226 321.792 948.383 357.532 948.383 357.532L939.061 429.012L919.752 422.737L936.217 342.652L949.158 279.656L963.442 280.839Z" fill="#2F2E41"/>
<path d="M970.288 173.504L955.223 163.162L932.297 162.497L924.314 170.314L912.13 176.528L911.002 277.757C911.002 277.757 947.486 295.223 967.114 286.792L976.556 207.935C980.474 192.285 970.288 173.504 970.288 173.504Z" fill="#3F3D56"/>
<path d="M930.729 215.592L893.939 231.756L851.51 200.823L864.495 187.7L888.196 205.499L906.696 195.293L918.47 189.427C920.356 188.487 922.425 187.97 924.532 187.912C926.639 187.854 928.733 188.257 930.667 189.092C932.6 189.927 934.328 191.175 935.728 192.747C937.128 194.32 938.168 196.179 938.773 198.196C939.784 201.575 939.524 205.207 938.043 208.411C936.561 211.614 933.961 214.168 930.729 215.592Z" fill="#3F3D56"/>
<path d="M955.211 152.751C965.184 148.162 969.554 136.368 964.971 126.407C960.389 116.447 948.589 112.092 938.616 116.68C928.642 121.269 924.273 133.063 928.855 143.024C933.438 152.984 945.238 157.339 955.211 152.751Z" fill="#9E616A"/>
<path d="M966.783 120.602C964.407 116.897 959.992 114.373 955.622 114.93C952.081 111.229 946.573 109.839 941.484 110.469C936.771 111.051 932.383 113.18 929.009 116.522C925.635 119.863 923.465 124.229 922.84 128.933C922.746 129.622 922.304 131.414 922.626 132.037C923.035 132.828 924.658 133.093 925.514 133.317C927.604 133.798 929.739 134.058 931.883 134.092C939.924 134.467 940.193 140.746 942.86 146.774C944.156 149.703 946.271 151.74 949.52 152.259C954.209 153.008 958.901 149.693 962.36 146.936C966.283 143.807 968.177 138.23 968.978 133.324C969.688 128.979 969.16 124.306 966.783 120.602Z" fill="#2F2E41"/>
<path d="M969.382 198.962L986.238 282.366L961.389 283.723L969.382 198.962Z" fill="#3F3D56"/>
<path d="M364.047 267.39C386.344 267.39 404.446 287.934 404.446 313.238V328.335H364.047V267.39Z" fill="#2F2E41"/>
<path d="M379.812 309.883C390.968 309.883 400.011 299.62 400.011 286.959C400.011 274.299 390.968 264.035 379.812 264.035C368.656 264.035 359.612 274.299 359.612 286.959C359.612 299.62 368.656 309.883 379.812 309.883Z" fill="#FFB6B6"/>
<path d="M393.361 404.096L374.639 391.795C374.639 391.795 349.021 362.672 348.282 376.419C347.543 390.166 332.023 438.361 367.373 445.83C402.722 453.299 424.892 438.762 424.892 438.762L414.546 416.397L393.361 404.096Z" fill="#2F2E41"/>
<path d="M326.095 358.747L315.615 379.709L326.99 431.552L335.661 428.351L336.525 381.361L341.83 369.252L326.095 358.747Z" fill="#FFB6B6"/>
<path d="M377.35 331.247C377.35 331.247 361.616 320.741 354.246 325.257C346.876 329.773 322.961 363.097 322.961 363.097L343.626 379.328L377.35 331.247Z" fill="#BF27D3"/>
<path d="M368.704 446.586L338.264 443.817L336.942 463.084L371.623 462.498L368.704 446.586Z" fill="#FFB6B6"/>
<path d="M390.897 310.722L370.205 313.518L367.249 325.259L352.469 330.851L360.844 391.236C360.844 391.236 384.492 395.15 393.361 409.128C402.229 423.106 417.994 425.343 417.994 425.343V380.954L417.009 321.905L396.317 317.991L390.897 310.722Z" fill="#BF27D3"/>
<path d="M411.59 425.902C411.59 425.902 446.077 422.547 452.974 430.375C459.872 438.203 462.335 452.74 453.96 459.449C445.584 466.159 422.921 464.482 422.921 464.482L418.487 436.525L411.59 425.902Z" fill="#2F2E41"/>
<path d="M427.848 433.73L364.786 444.353L364.151 464.668L422.921 464.482L427.848 433.73Z" fill="#2F2E41"/>
<path d="M434.745 375.022L431.543 394.87L398.534 435.127L392.868 427.02L415.038 387.322L416.516 373.903L434.745 375.022Z" fill="#FFB6B6"/>
<path d="M359.227 448.295C359.227 448.295 346.968 449.648 345.783 453.149C344.598 456.65 346.199 463.777 346.199 463.777L307.667 458.589C304.881 458.214 303.197 454.856 304.387 451.972C306.888 445.916 312.657 437.606 325.276 439.121C344.782 441.463 353.812 437.095 353.812 437.095L364.093 445.871L359.227 448.295Z" fill="#2F2E41"/>
<path d="M405.431 319.948C405.431 319.948 423.66 321.066 427.601 329.453C431.542 337.84 435.237 380.613 435.237 380.613L410.111 381.172L405.431 319.948Z" fill="#BF27D3"/>
<path d="M363.061 416.676L368.48 450.783L385.231 447.309L375.87 409.408L363.061 416.676Z" fill="#FFB6B6"/>
<path d="M387.448 442.676L364.785 443.235L366.263 472.309C366.263 472.309 365.771 488.511 378.087 488.517C390.404 488.524 395.331 489.642 395.331 486.847C395.331 484.051 392.867 467.596 392.867 467.596L387.448 449.944V442.676Z" fill="#2F2E41"/>
<path d="M378.088 419.192L359.366 423.665C347.109 393.104 339.637 363.703 338.674 335.883C338.674 335.883 336.703 318.55 351.976 317.991C367.249 317.432 369.219 343.151 369.219 343.151L378.088 419.192Z" fill="#2F2E41"/>
<path d="M396.046 443.047C400.831 438.061 402.509 431.3 399.795 427.947C397.082 424.593 391.004 425.917 386.219 430.903C381.435 435.889 379.757 442.65 382.47 446.004C385.184 449.357 391.262 448.034 396.046 443.047Z" fill="#FFB6B6"/>
<path d="M334.109 448.521C338.084 447.899 340.587 441.476 339.701 434.173C338.814 426.87 334.874 421.454 330.899 422.075C326.925 422.696 324.422 429.12 325.308 436.423C326.194 443.726 330.135 449.142 334.109 448.521Z" fill="#FFB6B6"/>
<path d="M418.484 305.505C417.456 301.96 415.428 298.856 414.521 295.268C413.316 290.505 410.75 301.072 410.5 296.124C410.024 286.721 397.378 262.531 390.158 257.885C382.939 253.238 378.792 254.639 371.437 259.003C371.437 259.003 367.866 259.261 363.421 261.751C358.976 264.242 354.975 268.23 353.247 273.503C351.876 277.682 352.028 282.272 351.57 286.701C350.294 299.039 344.2 310.774 345.508 323.108C345.916 326.956 347.205 330.935 349.977 333.198C352.75 335.462 357.229 335.216 359.054 331.939C359.676 330.821 359.94 329.495 360.474 328.319C361.007 327.143 361.971 326.047 363.136 326.084C364.888 326.139 365.779 328.805 365.088 330.633C364.398 332.46 362.775 333.563 361.252 334.544C364.88 336.397 369.381 335.82 372.554 333.095C375.728 330.371 377.441 325.612 376.857 321.146C376.034 314.851 367.955 316.154 367.003 309.883C366.31 305.319 363.877 297.68 364.539 293.11C365.202 288.539 368.385 294.073 365.032 291.432C368.721 293.451 376.612 279.643 380.474 278.097C384.336 276.55 387.611 273.201 389.367 269.002C393.463 275.741 397.067 273.911 398.534 281.927C400.001 289.943 398.644 308.154 392.604 312.629C395.021 314.501 396.948 317.178 398.083 320.24C398.725 321.974 399.142 323.872 400.208 325.313C402.245 328.064 406.007 328.231 409.005 327.074C412.722 325.64 415.9 322.49 417.653 318.502C419.405 314.515 419.711 309.738 418.484 305.505Z" fill="#2F2E41"/>
</g>
<defs>
<clipPath id="clip0_105_36">
<rect width="1440" height="488" fill="white" transform="matrix(-1 0 0 1 1440 0)"/>
</clipPath>
</defs>
</svg>
