<svg width="328" height="328" viewBox="0 0 328 328" fill="none" xmlns="http://www.w3.org/2000/svg">
<path d="M-1407 1004.26C-1407 1004.26 -1039.23 402.484 -628.227 304.901C-217.223 207.317 -18.4999 385.819 -18.4999 385.819C-18.4999 385.819 214.585 651.215 482.705 304.704C750.826 -41.8079 962.737 140.375 962.737 140.375M-1405.89 989.032C-1405.89 989.032 -1038.19 394.217 -627.186 296.763C-216.181 199.308 -17.4263 374.87 -17.4263 374.87C-17.4263 374.87 215.703 636.072 483.785 293.408C751.867 -49.2553 963.81 129.901 963.81 129.901M-1404.78 973.804C-1404.78 973.804 -1037.15 385.95 -626.145 288.625C-215.139 191.3 -16.3525 363.921 -16.3525 363.921C-16.3525 363.921 216.822 620.929 484.865 282.113C752.908 -56.7027 964.884 119.427 964.884 119.427M-1403.67 958.577C-1403.67 958.577 -1036.11 377.683 -625.103 280.487C-214.097 183.292 -15.2788 352.972 -15.2788 352.972C-15.2788 352.972 217.941 605.785 485.945 270.818C753.95 -64.1501 965.958 108.952 965.958 108.952M-1402.55 943.349C-1402.55 943.349 -1035.07 369.416 -624.062 272.35C-213.055 175.283 -14.205 342.023 -14.205 342.023C-14.205 342.023 219.059 590.642 487.025 259.522C754.991 -71.5974 967.032 98.4779 967.032 98.4779M-1401.44 928.121C-1401.44 928.121 -1034.03 361.149 -623.021 264.212C-212.013 167.275 -13.1313 331.075 -13.1313 331.075C-13.1313 331.075 220.178 575.499 488.105 248.227C756.032 -79.0448 968.105 88.0037 968.105 88.0037M-1400.33 912.893C-1400.33 912.893 -1032.99 352.882 -621.979 256.074C-210.971 159.266 -12.0576 320.126 -12.0576 320.126C-12.0576 320.126 221.297 560.356 489.185 236.932C757.073 -86.4921 969.179 77.5294 969.179 77.5294M-1399.22 897.665C-1399.22 897.665 -1031.95 344.615 -620.938 247.937C-209.929 151.258 -10.9839 309.177 -10.9839 309.177C-10.9839 309.177 222.415 545.212 490.265 225.636C758.114 -93.9395 970.253 67.055 970.253 67.055M-1398.11 882.437C-1398.11 882.437 -1030.91 336.349 -619.897 239.799C-208.887 143.249 -9.91015 298.228 -9.91015 298.228C-9.91015 298.228 223.534 530.069 491.344 214.341C759.155 -101.387 971.326 56.5808 971.326 56.5808M-1397 867.209C-1397 867.209 -1029.87 328.082 -618.855 231.661C-207.845 135.241 -8.83646 287.279 -8.83646 287.279C-8.83646 287.279 224.653 514.926 492.424 203.046C760.196 -108.834 972.4 46.1065 972.4 46.1065M-1395.89 851.981C-1395.89 851.981 -1028.83 319.815 -617.814 223.524C-206.803 127.233 -7.76276 276.33 -7.76276 276.33C-7.76276 276.33 225.771 499.783 493.504 191.751C761.237 -116.282 973.474 35.6322 973.474 35.6322M-1394.78 836.753C-1394.78 836.753 -1027.78 311.548 -616.773 215.386C-205.761 119.224 -6.68907 265.382 -6.68907 265.382C-6.68907 265.382 226.89 484.64 494.584 180.455C762.278 -123.729 974.548 25.158 974.548 25.158M-1393.66 821.525C-1393.66 821.525 -1026.74 303.281 -615.731 207.248C-204.719 111.216 -5.61527 254.433 -5.61527 254.433C-5.61527 254.433 228.009 469.496 495.664 169.16C763.319 -131.176 975.621 14.6836 975.621 14.6836M-1392.55 806.297C-1392.55 806.297 -1025.7 295.014 -614.69 199.111C-203.677 103.207 -4.54158 243.484 -4.54158 243.484C-4.54158 243.484 229.127 454.353 496.744 157.865C764.36 -138.624 976.695 4.20937 976.695 4.20937M-1391.44 791.069C-1391.44 791.069 -1024.66 286.747 -613.649 190.973C-202.635 95.199 -3.46789 232.535 -3.46789 232.535C-3.46789 232.535 230.246 439.21 497.824 146.569C765.402 -146.071 977.769 -6.26492 977.769 -6.26492M-1390.33 775.841C-1390.33 775.841 -1023.62 278.48 -612.607 182.835C-201.593 87.1906 -2.39409 221.586 -2.39409 221.586C-2.39409 221.586 231.365 424.067 498.903 135.274C766.443 -153.518 978.843 -16.7392 978.843 -16.7392M-1389.22 760.613C-1389.22 760.613 -1022.58 270.213 -611.566 174.698C-200.551 79.1822 -1.3204 210.637 -1.3204 210.637C-1.3204 210.637 232.483 408.923 499.984 123.979C767.484 -160.966 979.916 -27.2135 979.916 -27.2135M-1388.11 745.385C-1388.11 745.385 -1021.54 261.946 -610.525 166.56C-199.508 71.1738 -0.2466 199.688 -0.2466 199.688C-0.2466 199.688 233.602 393.78 501.063 112.683C768.525 -168.413 980.99 -37.6878 980.99 -37.6878M-1387 730.157C-1387 730.157 -1020.5 253.679 -609.483 158.422C-198.466 63.1653 0.827094 188.74 0.827094 188.74C0.827094 188.74 234.721 378.637 502.143 101.388C769.566 -175.86 982.064 -48.1621 982.064 -48.1621M-1385.88 714.929C-1385.88 714.929 -1019.46 245.412 -608.442 150.284C-197.424 55.1569 1.90069 177.791 1.90069 177.791C1.90069 177.791 235.839 363.494 503.223 90.0929C770.607 -183.308 983.137 -58.6364 983.137 -58.6364M-1384.77 699.701C-1384.77 699.701 -1018.42 237.145 -607.401 142.147C-196.382 47.1485 2.97448 166.842 2.97448 166.842C2.97448 166.842 236.958 348.35 504.303 78.7976C771.648 -190.755 984.211 -69.1106 984.211 -69.1106M-1383.66 684.473C-1383.66 684.473 -1017.38 228.878 -606.359 134.009C-195.34 39.1401 4.04818 155.893 4.04818 155.893C4.04818 155.893 238.076 333.207 505.383 67.5023C772.689 -198.202 985.285 -79.5849 985.285 -79.5849M-1382.55 669.245C-1382.55 669.245 -1016.34 220.611 -605.318 125.871C-194.298 31.1317 5.12197 144.944 5.12197 144.944C5.12197 144.944 239.195 318.064 506.463 56.207C773.73 -205.65 986.358 -90.0592 986.358 -90.0592M-1381.44 654.017C-1381.44 654.017 -1015.3 212.344 -604.277 117.734C-193.256 23.1233 6.19567 133.995 6.19567 133.995C6.19567 133.995 240.314 302.921 507.543 44.9117C774.771 -213.097 987.432 -100.533 987.432 -100.533M-1380.33 638.789C-1380.33 638.789 -1014.26 204.077 -603.236 109.596C-192.214 15.1149 7.26936 123.046 7.26936 123.046C7.26936 123.046 241.432 287.777 508.622 33.6164C775.812 -220.545 988.506 -111.008 988.506 -111.008M-1379.22 623.561C-1379.22 623.561 -1013.22 195.81 -602.194 101.458C-191.172 7.10646 8.34316 112.098 8.34316 112.098C8.34316 112.098 242.551 272.634 509.702 22.3211C776.853 -227.992 989.58 -121.482 989.58 -121.482M-1378.1 608.333C-1378.1 608.333 -1012.18 187.543 -601.153 93.3207C-190.13 -0.901981 9.41685 101.149 9.41685 101.149C9.41685 101.149 243.67 257.491 510.782 11.0258C777.894 -235.439 990.654 -131.956 990.654 -131.956M-1376.99 593.106C-1376.99 593.106 -1011.14 179.276 -600.112 85.183C-189.088 -8.91037 10.4905 90.1999 10.4905 90.1999C10.4905 90.1999 244.789 242.348 511.862 -0.269506C778.936 -242.887 991.727 -142.431 991.727 -142.431M-1375.88 577.878C-1375.88 577.878 -1010.09 171.009 -599.07 77.0453C-188.046 -16.9188 11.5642 79.2511 11.5642 79.2511C11.5642 79.2511 245.907 227.204 512.942 -11.5648C779.977 -250.334 992.801 -152.905 992.801 -152.905M-1374.77 562.65C-1374.77 562.65 -1009.05 162.742 -598.029 68.9076C-187.004 -24.9272 12.6379 68.3022 12.6379 68.3022C12.6379 68.3022 247.026 212.061 514.022 -22.8601C781.018 -257.781 993.875 -163.379 993.875 -163.379M-1373.66 547.422C-1373.66 547.422 -1008.01 154.475 -596.988 60.7699C-185.962 -32.9356 13.7117 57.3534 13.7117 57.3534C13.7117 57.3534 248.144 196.918 515.101 -34.1554C782.059 -265.229 994.948 -173.854 994.948 -173.854M-1372.55 532.194C-1372.55 532.194 -1006.97 146.209 -595.946 52.6323C-184.92 -40.944 14.7854 46.4045 14.7854 46.4045C14.7854 46.4045 249.263 181.775 516.181 -45.4506C783.1 -272.676 996.022 -184.328 996.022 -184.328" stroke="#312E81" stroke-opacity="0.3"/>
</svg>
