<svg width="899" height="374" viewBox="0 0 899 374" fill="none" xmlns="http://www.w3.org/2000/svg">
<path d="M1173.34 -61.5774C1173.34 -61.5774 761.458 344.579 588.991 299.916C416.523 255.252 446.118 37.9508 446.118 37.9508C446.118 37.9508 508.88 -265.511 254.765 -49.3672C0.650137 166.777 28.122 -57.8647 28.122 -57.8647M1165.38 -48.7217C1165.38 -48.7217 757.007 351.42 584.603 306.645C412.2 261.869 440.313 47.1076 440.313 47.1076C440.313 47.1076 500.963 -252.731 248.786 -39.912C-3.3914 172.907 22.5553 -49.1196 22.5553 -49.1196M1157.42 -35.8661C1157.42 -35.8661 752.555 358.262 580.216 313.374C407.877 268.486 434.509 56.2643 434.509 56.2643C434.509 56.2643 493.045 -239.952 242.806 -30.4567C-7.43284 179.038 16.9887 -40.3743 16.9887 -40.3743M1149.46 -23.0105C1149.46 -23.0105 748.103 365.103 575.829 320.103C403.555 275.103 428.705 65.421 428.705 65.421C428.705 65.421 485.127 -227.172 236.827 -21.0015C-11.4744 185.169 11.4219 -31.6291 11.4219 -31.6291M1141.51 -10.1549C1141.51 -10.1549 743.652 371.945 571.442 326.832C399.232 281.72 422.901 74.5777 422.901 74.5777C422.901 74.5777 477.21 -214.392 230.847 -11.5462C-15.5159 191.299 5.85521 -22.8839 5.85521 -22.8839M1133.55 2.70069C1133.55 2.70069 739.2 378.786 567.055 333.561C394.909 288.336 417.096 83.7345 417.096 83.7345C417.096 83.7345 469.292 -201.612 224.867 -2.09102C-19.5574 197.43 0.288598 -14.1387 0.288598 -14.1387M1125.59 15.5564C1125.59 15.5564 734.748 385.628 562.667 340.291C390.586 294.953 411.292 92.8912 411.292 92.8912C411.292 92.8912 461.375 -188.832 218.888 7.36427C-23.5989 203.561 -5.27813 -5.39346 -5.27813 -5.39346M1117.63 28.412C1117.63 28.412 730.297 392.47 558.28 347.02C386.264 301.57 405.488 102.048 405.488 102.048C405.488 102.048 453.457 -176.052 212.908 16.8195C-27.6405 209.691 -10.8449 3.35176 -10.8449 3.35176M1109.67 41.2676C1109.67 41.2676 725.845 399.311 553.893 353.749C381.941 308.187 399.684 111.205 399.684 111.205C399.684 111.205 445.539 -163.272 206.929 26.2747C-31.6819 215.822 -16.4115 12.097 -16.4115 12.097M1101.72 54.1233C1101.72 54.1233 721.393 406.153 549.506 360.478C377.619 314.804 393.879 120.361 393.879 120.361C393.879 120.361 437.622 -150.493 200.949 35.73C-35.7234 221.952 -21.9782 20.8422 -21.9782 20.8422M1093.76 66.9788C1093.76 66.9788 716.942 412.994 545.119 367.207C373.296 321.421 388.075 129.518 388.075 129.518C388.075 129.518 429.704 -137.713 194.97 45.1852C-39.7649 228.083 -27.5449 29.5874 -27.5449 29.5874M1085.8 79.8344C1085.8 79.8344 712.49 419.836 540.732 373.937C368.973 328.038 382.271 138.675 382.271 138.675C382.271 138.675 421.787 -124.933 188.99 54.6404C-43.8063 234.214 -33.1116 38.3326 -33.1116 38.3326M1077.84 92.6901C1077.84 92.6901 708.038 426.677 536.344 380.666C364.651 334.654 376.466 147.832 376.466 147.832C376.466 147.832 413.869 -112.153 183.01 64.0957C-47.8479 240.344 -38.6783 47.0778 -38.6783 47.0778M1069.89 105.546C1069.89 105.546 703.587 433.519 531.957 387.395C360.328 341.271 370.662 156.988 370.662 156.988C370.662 156.988 405.951 -99.3732 177.031 73.5509C-51.8894 246.475 -44.245 55.8231 -44.245 55.8231M1061.93 118.401C1061.93 118.401 699.135 440.36 527.57 394.124C356.005 347.888 364.858 166.145 364.858 166.145C364.858 166.145 398.034 -86.5934 171.051 83.0061C-55.9309 252.606 -49.8117 64.5683 -49.8117 64.5683M1053.97 131.257C1053.97 131.257 694.683 447.202 523.183 400.853C351.682 354.505 359.054 175.302 359.054 175.302C359.054 175.302 390.116 -73.8135 165.072 92.4614C-59.9723 258.736 -55.3784 73.3135 -55.3784 73.3135M1046.01 144.113C1046.01 144.113 690.232 454.043 518.796 407.582C347.36 361.122 353.249 184.459 353.249 184.459C353.249 184.459 382.198 -61.0337 159.092 101.917C-64.0139 264.867 -60.945 82.0587 -60.945 82.0587M1038.05 156.968C1038.05 156.968 685.78 460.885 514.409 414.312C343.037 367.739 347.445 193.615 347.445 193.615C347.445 193.615 374.281 -48.2538 153.113 111.372C-68.0554 270.997 -66.5118 90.8039 -66.5118 90.8039M1030.1 169.824C1030.1 169.824 681.328 467.726 510.021 421.041C338.714 374.356 341.641 202.772 341.641 202.772C341.641 202.772 366.363 -35.474 147.133 120.827C-72.0969 277.128 -72.0785 99.5491 -72.0785 99.5491M1022.14 182.679C1022.14 182.679 676.877 474.568 505.634 427.77C334.392 380.972 335.837 211.929 335.837 211.929C335.837 211.929 358.445 -22.6941 141.154 130.282C-76.1384 283.259 -77.6451 108.294 -77.6451 108.294M1014.18 195.535C1014.18 195.535 672.425 481.409 501.247 434.499C330.069 387.589 330.032 221.086 330.032 221.086C330.032 221.086 350.528 -9.91428 135.174 139.738C-80.1798 289.389 -83.2118 117.04 -83.2118 117.04M1006.22 208.391C1006.22 208.391 667.973 488.251 496.86 441.228C325.746 394.206 324.228 230.242 324.228 230.242C324.228 230.242 342.61 2.86557 129.194 149.193C-84.2213 295.52 -88.7785 125.785 -88.7785 125.785M998.265 221.246C998.265 221.246 663.522 495.092 492.473 447.958C321.424 400.823 318.424 239.399 318.424 239.399C318.424 239.399 334.693 15.6454 123.215 158.648C-88.2629 301.651 -94.3452 134.53 -94.3452 134.53M990.307 234.102C990.307 234.102 659.07 501.934 488.086 454.687C317.101 407.44 312.62 248.556 312.62 248.556C312.62 248.556 326.775 28.4253 117.235 168.103C-92.3044 307.781 -99.9119 143.275 -99.9119 143.275M982.349 246.957C982.349 246.957 654.618 508.775 483.698 461.416C312.778 414.057 306.815 257.713 306.815 257.713C306.815 257.713 318.857 41.2051 111.256 177.559C-96.3459 313.912 -105.479 152.02 -105.479 152.02M974.391 259.813C974.391 259.813 650.167 515.617 479.311 468.145C308.456 420.674 301.011 266.869 301.011 266.869C301.011 266.869 310.94 53.985 105.276 187.014C-100.387 320.043 -111.045 160.766 -111.045 160.766M966.433 272.669C966.433 272.669 645.715 522.458 474.924 474.874C304.133 427.29 295.207 276.026 295.207 276.026C295.207 276.026 303.022 66.7648 99.2967 196.469C-104.429 326.173 -116.612 169.511 -116.612 169.511M958.476 285.524C958.476 285.524 641.263 529.3 470.537 481.604C299.81 433.907 289.402 285.183 289.402 285.183C289.402 285.183 295.104 79.5446 93.317 205.924C-108.47 332.304 -122.179 178.256 -122.179 178.256M950.518 298.38C950.518 298.38 636.812 536.141 466.15 488.333C295.488 440.524 283.598 294.34 283.598 294.34C283.598 294.34 287.187 92.3245 87.3375 215.38C-112.512 338.434 -127.745 187.001 -127.745 187.001M942.56 311.235C942.56 311.235 632.36 542.983 461.763 495.062C291.165 447.141 277.794 303.496 277.794 303.496C277.794 303.496 279.269 105.104 81.3579 224.835C-116.553 344.565 -133.312 195.747 -133.312 195.747M934.602 324.091C934.602 324.091 627.908 549.824 457.375 501.791C286.842 453.758 271.99 312.653 271.99 312.653C271.99 312.653 271.352 117.884 75.3784 234.29C-120.595 350.696 -138.879 204.492 -138.879 204.492M926.644 336.947C926.644 336.947 623.457 556.666 452.988 508.52C282.52 460.375 266.185 321.81 266.185 321.81C266.185 321.81 263.434 130.664 69.3989 243.745C-124.636 356.826 -144.445 213.237 -144.445 213.237" stroke="#312E81" stroke-opacity="0.3"/>
</svg>
