<svg width="328" height="328" viewBox="0 0 328 328" fill="none" xmlns="http://www.w3.org/2000/svg">
<path d="M-995 998.26C-995 998.26 -627.231 396.484 -216.227 298.901C194.777 201.317 393.5 379.819 393.5 379.819C393.5 379.819 626.585 645.215 894.705 298.704C1162.83 -47.8079 1374.74 134.375 1374.74 134.375M-993.889 983.032C-993.889 983.032 -626.191 388.217 -215.186 290.763C195.819 193.308 394.574 368.87 394.574 368.87C394.574 368.87 627.703 630.072 895.785 287.408C1163.87 -55.2553 1375.81 123.901 1375.81 123.901M-992.777 967.804C-992.777 967.804 -625.15 379.95 -214.145 282.625C196.861 185.3 395.647 357.921 395.647 357.921C395.647 357.921 628.822 614.929 896.865 276.113C1164.91 -62.7027 1376.88 113.427 1376.88 113.427M-991.666 952.577C-991.666 952.577 -624.109 371.683 -213.103 274.487C197.903 177.292 396.721 346.972 396.721 346.972C396.721 346.972 629.941 599.785 897.945 264.818C1165.95 -70.1501 1377.96 102.952 1377.96 102.952M-990.555 937.349C-990.555 937.349 -623.069 363.416 -212.062 266.35C198.945 169.283 397.795 336.023 397.795 336.023C397.795 336.023 631.059 584.642 899.025 253.522C1166.99 -77.5974 1379.03 92.4779 1379.03 92.4779M-989.443 922.121C-989.443 922.121 -622.028 355.149 -211.021 258.212C199.987 161.275 398.869 325.075 398.869 325.075C398.869 325.075 632.178 569.499 900.105 242.227C1168.03 -85.0448 1380.11 82.0037 1380.11 82.0037M-988.332 906.893C-988.332 906.893 -620.988 346.882 -209.979 250.074C201.029 153.266 399.942 314.126 399.942 314.126C399.942 314.126 633.297 554.356 901.185 230.932C1169.07 -92.4921 1381.18 71.5294 1381.18 71.5294M-987.22 891.665C-987.22 891.665 -619.947 338.615 -208.938 241.937C202.071 145.258 401.016 303.177 401.016 303.177C401.016 303.177 634.415 539.212 902.265 219.636C1170.11 -99.9395 1382.25 61.055 1382.25 61.055M-986.109 876.437C-986.109 876.437 -618.906 330.349 -207.897 233.799C203.113 137.249 402.09 292.228 402.09 292.228C402.09 292.228 635.534 524.069 903.344 208.341C1171.16 -107.387 1383.33 50.5808 1383.33 50.5808M-984.998 861.209C-984.998 861.209 -617.866 322.082 -206.855 225.661C204.155 129.241 403.164 281.279 403.164 281.279C403.164 281.279 636.653 508.926 904.424 197.046C1172.2 -114.834 1384.4 40.1065 1384.4 40.1065M-983.886 845.981C-983.886 845.981 -616.825 313.815 -205.814 217.524C205.197 121.233 404.237 270.33 404.237 270.33C404.237 270.33 637.771 493.783 905.504 185.751C1173.24 -122.282 1385.47 29.6322 1385.47 29.6322M-982.775 830.753C-982.775 830.753 -615.785 305.548 -204.773 209.386C206.239 113.224 405.311 259.382 405.311 259.382C405.311 259.382 638.89 478.64 906.584 174.455C1174.28 -129.729 1386.55 19.158 1386.55 19.158M-981.664 815.525C-981.664 815.525 -614.744 297.281 -203.731 201.248C207.281 105.216 406.385 248.433 406.385 248.433C406.385 248.433 640.009 463.496 907.664 163.16C1175.32 -137.176 1387.62 8.68364 1387.62 8.68364M-980.552 800.297C-980.552 800.297 -613.704 289.014 -202.69 193.111C208.323 97.2074 407.458 237.484 407.458 237.484C407.458 237.484 641.127 448.353 908.744 151.865C1176.36 -144.624 1388.7 -1.79063 1388.7 -1.79063M-979.441 785.069C-979.441 785.069 -612.663 280.747 -201.649 184.973C209.365 89.199 408.532 226.535 408.532 226.535C408.532 226.535 642.246 433.21 909.824 140.569C1177.4 -152.071 1389.77 -12.2649 1389.77 -12.2649M-978.33 769.841C-978.33 769.841 -611.622 272.48 -200.607 176.835C210.407 81.1906 409.606 215.586 409.606 215.586C409.606 215.586 643.365 418.067 910.903 129.274C1178.44 -159.518 1390.84 -22.7392 1390.84 -22.7392M-977.218 754.613C-977.218 754.613 -610.582 264.213 -199.566 168.698C211.449 73.1822 410.68 204.637 410.68 204.637C410.68 204.637 644.483 402.923 911.984 117.979C1179.48 -166.966 1391.92 -33.2135 1391.92 -33.2135M-976.107 739.385C-976.107 739.385 -609.541 255.946 -198.525 160.56C212.492 65.1738 411.753 193.688 411.753 193.688C411.753 193.688 645.602 387.78 913.063 106.683C1180.52 -174.413 1392.99 -43.6878 1392.99 -43.6878M-974.996 724.157C-974.996 724.157 -608.501 247.679 -197.483 152.422C213.534 57.1653 412.827 182.74 412.827 182.74C412.827 182.74 646.721 372.637 914.143 95.3882C1181.57 -181.86 1394.06 -54.1621 1394.06 -54.1621M-973.884 708.929C-973.884 708.929 -607.46 239.412 -196.442 144.284C214.576 49.1569 413.901 171.791 413.901 171.791C413.901 171.791 647.839 357.494 915.223 84.0929C1182.61 -189.308 1395.14 -64.6364 1395.14 -64.6364M-972.773 693.701C-972.773 693.701 -606.419 231.145 -195.401 136.147C215.618 41.1485 414.974 160.842 414.974 160.842C414.974 160.842 648.958 342.35 916.303 72.7976C1183.65 -196.755 1396.21 -75.1106 1396.21 -75.1106M-971.662 678.473C-971.662 678.473 -605.379 222.878 -194.359 128.009C216.66 33.1401 416.048 149.893 416.048 149.893C416.048 149.893 650.076 327.207 917.383 61.5023C1184.69 -204.202 1397.28 -85.5849 1397.28 -85.5849M-970.55 663.245C-970.55 663.245 -604.338 214.611 -193.318 119.871C217.702 25.1317 417.122 138.944 417.122 138.944C417.122 138.944 651.195 312.064 918.463 50.207C1185.73 -211.65 1398.36 -96.0592 1398.36 -96.0592M-969.439 648.017C-969.439 648.017 -603.298 206.344 -192.277 111.734C218.744 17.1233 418.196 127.995 418.196 127.995C418.196 127.995 652.314 296.921 919.543 38.9117C1186.77 -219.097 1399.43 -106.533 1399.43 -106.533M-968.327 632.789C-968.327 632.789 -602.257 198.077 -191.236 103.596C219.786 9.11487 419.269 117.046 419.269 117.046C419.269 117.046 653.432 281.777 920.622 27.6164C1187.81 -226.545 1400.51 -117.008 1400.51 -117.008M-967.216 617.561C-967.216 617.561 -601.216 189.81 -190.194 95.4584C220.828 1.10646 420.343 106.098 420.343 106.098C420.343 106.098 654.551 266.634 921.702 16.3211C1188.85 -233.992 1401.58 -127.482 1401.58 -127.482M-966.105 602.333C-966.105 602.333 -600.176 181.543 -189.153 87.3207C221.87 -6.90198 421.417 95.1488 421.417 95.1488C421.417 95.1488 655.67 251.491 922.782 5.02585C1189.89 -241.439 1402.65 -137.956 1402.65 -137.956M-964.993 587.106C-964.993 587.106 -599.135 173.276 -188.112 79.183C222.912 -14.9104 422.491 84.1999 422.491 84.1999C422.491 84.1999 656.789 236.348 923.862 -6.26951C1190.94 -248.887 1403.73 -148.431 1403.73 -148.431M-963.882 571.878C-963.882 571.878 -598.095 165.009 -187.07 71.0453C223.954 -22.9188 423.564 73.2511 423.564 73.2511C423.564 73.2511 657.907 221.204 924.942 -17.5648C1191.98 -256.334 1404.8 -158.905 1404.8 -158.905M-962.771 556.65C-962.771 556.65 -597.054 156.742 -186.029 62.9076C224.996 -30.9272 424.638 62.3022 424.638 62.3022C424.638 62.3022 659.026 206.061 926.022 -28.8601C1193.02 -263.781 1405.87 -169.379 1405.87 -169.379M-961.659 541.422C-961.659 541.422 -596.013 148.475 -184.988 54.7699C226.038 -38.9356 425.712 51.3534 425.712 51.3534C425.712 51.3534 660.144 190.918 927.101 -40.1554C1194.06 -271.229 1406.95 -179.854 1406.95 -179.854M-960.548 526.194C-960.548 526.194 -594.973 140.209 -183.946 46.6323C227.08 -46.944 426.785 40.4045 426.785 40.4045C426.785 40.4045 661.263 175.775 928.181 -51.4506C1195.1 -278.676 1408.02 -190.328 1408.02 -190.328" stroke="#312E81" stroke-opacity="0.3"/>
</svg>
