<svg width="328" height="328" viewBox="0 0 328 328" fill="none" xmlns="http://www.w3.org/2000/svg">
<path d="M-1298 1036.26C-1298 1036.26 -930.231 434.484 -519.227 336.901C-108.223 239.317 90.5001 417.819 90.5001 417.819C90.5001 417.819 323.585 683.215 591.705 336.704C859.826 -9.80792 1071.74 172.375 1071.74 172.375M-1296.89 1021.03C-1296.89 1021.03 -929.191 426.217 -518.186 328.763C-107.181 231.308 91.5737 406.87 91.5737 406.87C91.5737 406.87 324.703 668.072 592.785 325.408C860.867 -17.2553 1072.81 161.901 1072.81 161.901M-1295.78 1005.8C-1295.78 1005.8 -928.15 417.95 -517.145 320.625C-106.139 223.3 92.6475 395.921 92.6475 395.921C92.6475 395.921 325.822 652.929 593.865 314.113C861.908 -24.7027 1073.88 151.427 1073.88 151.427M-1294.67 990.577C-1294.67 990.577 -927.109 409.683 -516.103 312.487C-105.097 215.292 93.7212 384.972 93.7212 384.972C93.7212 384.972 326.941 637.785 594.945 302.818C862.95 -32.1501 1074.96 140.952 1074.96 140.952M-1293.55 975.349C-1293.55 975.349 -926.069 401.416 -515.062 304.35C-104.055 207.283 94.795 374.023 94.795 374.023C94.795 374.023 328.059 622.642 596.025 291.522C863.991 -39.5974 1076.03 130.478 1076.03 130.478M-1292.44 960.121C-1292.44 960.121 -925.028 393.149 -514.021 296.212C-103.013 199.275 95.8687 363.075 95.8687 363.075C95.8687 363.075 329.178 607.499 597.105 280.227C865.032 -47.0448 1077.11 120.004 1077.11 120.004M-1291.33 944.893C-1291.33 944.893 -923.988 384.882 -512.979 288.074C-101.971 191.266 96.9424 352.126 96.9424 352.126C96.9424 352.126 330.297 592.356 598.185 268.932C866.073 -54.4921 1078.18 109.529 1078.18 109.529M-1290.22 929.665C-1290.22 929.665 -922.947 376.615 -511.938 279.937C-100.929 183.258 98.0161 341.177 98.0161 341.177C98.0161 341.177 331.415 577.212 599.265 257.636C867.114 -61.9395 1079.25 99.055 1079.25 99.055M-1289.11 914.437C-1289.11 914.437 -921.906 368.349 -510.897 271.799C-99.8869 175.249 99.0898 330.228 99.0898 330.228C99.0898 330.228 332.534 562.069 600.344 246.341C868.155 -69.3868 1080.33 88.5808 1080.33 88.5808M-1288 899.209C-1288 899.209 -920.866 360.082 -509.855 263.661C-98.8449 167.241 100.164 319.279 100.164 319.279C100.164 319.279 333.653 546.926 601.424 235.046C869.196 -76.8342 1081.4 78.1065 1081.4 78.1065M-1286.89 883.981C-1286.89 883.981 -919.825 351.815 -508.814 255.524C-97.8028 159.233 101.237 308.33 101.237 308.33C101.237 308.33 334.771 531.783 602.504 223.751C870.237 -84.2816 1082.47 67.6322 1082.47 67.6322M-1285.78 868.753C-1285.78 868.753 -918.785 343.548 -507.773 247.386C-96.7607 151.224 102.311 297.382 102.311 297.382C102.311 297.382 335.89 516.64 603.584 212.455C871.278 -91.7289 1083.55 57.158 1083.55 57.158M-1284.66 853.525C-1284.66 853.525 -917.744 335.281 -506.731 239.248C-95.7187 143.216 103.385 286.433 103.385 286.433C103.385 286.433 337.009 501.496 604.664 201.16C872.319 -99.1763 1084.62 46.6836 1084.62 46.6836M-1283.55 838.297C-1283.55 838.297 -916.704 327.014 -505.69 231.111C-94.6766 135.207 104.458 275.484 104.458 275.484C104.458 275.484 338.127 486.353 605.744 189.865C873.36 -106.624 1085.7 36.2094 1085.7 36.2094M-1282.44 823.069C-1282.44 823.069 -915.663 318.747 -504.649 222.973C-93.6346 127.199 105.532 264.535 105.532 264.535C105.532 264.535 339.246 471.21 606.824 178.569C874.402 -114.071 1086.77 25.7351 1086.77 25.7351M-1281.33 807.841C-1281.33 807.841 -914.622 310.48 -503.607 214.835C-92.5926 119.191 106.606 253.586 106.606 253.586C106.606 253.586 340.365 456.067 607.903 167.274C875.443 -121.518 1087.84 15.2608 1087.84 15.2608M-1280.22 792.613C-1280.22 792.613 -913.582 302.213 -502.566 206.698C-91.5506 111.182 107.68 242.637 107.68 242.637C107.68 242.637 341.483 440.923 608.984 155.979C876.484 -128.966 1088.92 4.78653 1088.92 4.78653M-1279.11 777.385C-1279.11 777.385 -912.541 293.946 -501.525 198.56C-90.5085 103.174 108.753 231.688 108.753 231.688C108.753 231.688 342.602 425.78 610.063 144.683C877.525 -136.413 1089.99 -5.68778 1089.99 -5.68778M-1278 762.157C-1278 762.157 -911.501 285.679 -500.483 190.422C-89.4664 95.1653 109.827 220.74 109.827 220.74C109.827 220.74 343.721 410.637 611.143 133.388C878.566 -143.86 1091.06 -16.1621 1091.06 -16.1621M-1276.88 746.929C-1276.88 746.929 -910.46 277.412 -499.442 182.284C-88.4243 87.1569 110.901 209.791 110.901 209.791C110.901 209.791 344.839 395.494 612.223 122.093C879.607 -151.308 1092.14 -26.6364 1092.14 -26.6364M-1275.77 731.701C-1275.77 731.701 -909.419 269.145 -498.401 174.147C-87.3824 79.1485 111.974 198.842 111.974 198.842C111.974 198.842 345.958 380.35 613.303 110.798C880.648 -158.755 1093.21 -37.1106 1093.21 -37.1106M-1274.66 716.473C-1274.66 716.473 -908.379 260.878 -497.359 166.009C-86.3403 71.1401 113.048 187.893 113.048 187.893C113.048 187.893 347.076 365.207 614.383 99.5023C881.689 -166.202 1094.28 -47.5849 1094.28 -47.5849M-1273.55 701.245C-1273.55 701.245 -907.338 252.611 -496.318 157.871C-85.2982 63.1317 114.122 176.944 114.122 176.944C114.122 176.944 348.195 350.064 615.463 88.207C882.73 -173.65 1095.36 -58.0592 1095.36 -58.0592M-1272.44 686.017C-1272.44 686.017 -906.298 244.344 -495.277 149.734C-84.2562 55.1233 115.196 165.995 115.196 165.995C115.196 165.995 349.314 334.921 616.543 76.9117C883.771 -181.097 1096.43 -68.5335 1096.43 -68.5335M-1271.33 670.789C-1271.33 670.789 -905.257 236.077 -494.236 141.596C-83.2142 47.1149 116.269 155.046 116.269 155.046C116.269 155.046 350.432 319.777 617.622 65.6164C884.812 -188.545 1097.51 -79.0078 1097.51 -79.0078M-1270.22 655.561C-1270.22 655.561 -904.216 227.81 -493.194 133.458C-82.1722 39.1065 117.343 144.098 117.343 144.098C117.343 144.098 351.551 304.634 618.702 54.3211C885.853 -195.992 1098.58 -89.4821 1098.58 -89.4821M-1269.1 640.333C-1269.1 640.333 -903.176 219.543 -492.153 125.321C-81.13 31.098 118.417 133.149 118.417 133.149C118.417 133.149 352.67 289.491 619.782 43.0258C886.894 -203.439 1099.65 -99.9564 1099.65 -99.9564M-1267.99 625.106C-1267.99 625.106 -902.135 211.276 -491.112 117.183C-80.088 23.0896 119.491 122.2 119.491 122.2C119.491 122.2 353.789 274.348 620.862 31.7305C887.936 -210.887 1100.73 -110.431 1100.73 -110.431M-1266.88 609.878C-1266.88 609.878 -901.095 203.009 -490.07 109.045C-79.046 15.0812 120.564 111.251 120.564 111.251C120.564 111.251 354.907 259.204 621.942 20.4352C888.977 -218.334 1101.8 -120.905 1101.8 -120.905M-1265.77 594.65C-1265.77 594.65 -900.054 194.742 -489.029 100.908C-78.0039 7.07278 121.638 100.302 121.638 100.302C121.638 100.302 356.026 244.061 623.022 9.13989C890.018 -225.781 1102.87 -131.379 1102.87 -131.379M-1264.66 579.422C-1264.66 579.422 -899.013 186.475 -487.988 92.7699C-76.9618 -0.93564 122.712 89.3534 122.712 89.3534C122.712 89.3534 357.144 228.918 624.101 -2.15538C891.059 -233.229 1103.95 -141.854 1103.95 -141.854M-1263.55 564.194C-1263.55 564.194 -897.973 178.209 -486.946 84.6323C-75.9198 -8.94404 123.785 78.4045 123.785 78.4045C123.785 78.4045 358.263 213.775 625.181 -13.4506C892.1 -240.676 1105.02 -152.328 1105.02 -152.328" stroke="#312E81" stroke-opacity="0.3"/>
</svg>
