<svg width="1440" height="810" viewBox="0 0 1440 810" fill="none" xmlns="http://www.w3.org/2000/svg">
<path d="M63 726.545C130.6 695.194 265.8 616.488 401 569.789C536.2 523.093 603.8 597.236 739 493.056C874.2 388.877 941.8 114.639 1077 48.8886C1212.2 -16.8605 1347.4 141.224 1415 164.307V751.875H63V726.545Z" fill="#BF27D3" fill-opacity="0.101961"/>
<path d="M63 726.762C130.6 695.411 265.8 616.703 401 570.003C536.2 523.305 603.8 597.45 739 493.267C874.2 389.086 941.8 114.841 1077 49.089C1212.2 -16.6618 1347.4 141.427 1415 164.511" stroke="#BF27D3" stroke-width="2"/>
<path d="M4 766L1427 766" stroke="#BF27D3" stroke-width="5" stroke-linecap="round"/>
<path d="M45 27L45 804" stroke="#BF27D3" stroke-width="5" stroke-linecap="round"/>
</svg>
