<svg width="1440" height="1024" viewBox="0 0 1440 1024" fill="none" xmlns="http://www.w3.org/2000/svg">
<path d="M2312.6 1129.64C2312.6 1129.64 1618.31 1240.64 1280.75 992.64C943.178 744.636 952.027 478.68 952.027 478.68C952.027 478.68 1005.12 130.48 569.258 151.733C133.393 172.986 136.604 -105.336 136.604 -105.336M2300.28 1138.65C2300.28 1138.65 1611.35 1245.2 1273.88 997.117C936.405 749.03 942.992 484.953 942.992 484.953C942.992 484.953 992.861 139.433 559.955 158.225C127.048 177.017 127.931 -99.3704 127.931 -99.3704M2287.96 1147.67C2287.96 1147.67 1604.38 1249.77 1267 1001.6C929.632 753.423 933.957 491.225 933.957 491.225C933.957 491.225 980.599 148.385 550.652 164.717C120.704 181.048 119.258 -93.405 119.258 -93.405M2275.64 1156.68C2275.64 1156.68 1597.41 1254.33 1260.13 1006.07C922.859 757.817 924.922 497.498 924.922 497.498C924.922 497.498 968.337 157.338 541.348 171.209C114.359 185.079 110.584 -87.4398 110.584 -87.4398M2263.32 1165.69C2263.32 1165.69 1590.44 1258.89 1253.26 1010.55C916.087 762.211 915.886 503.77 915.886 503.77C915.886 503.77 956.076 166.29 532.045 177.701C108.015 189.11 101.911 -81.4746 101.911 -81.4746M2250.99 1174.71C2250.99 1174.71 1583.47 1263.45 1246.39 1015.03C909.314 766.604 906.851 510.042 906.851 510.042C906.851 510.042 943.814 175.243 522.742 184.192C101.67 193.142 93.2379 -75.5093 93.2379 -75.5093M2238.67 1183.72C2238.67 1183.72 1576.5 1268.01 1239.52 1019.51C902.541 770.997 897.816 516.315 897.816 516.315C897.816 516.315 931.552 184.196 513.439 190.684C95.3255 197.173 84.5645 -69.5441 84.5645 -69.5441M2226.35 1192.73C2226.35 1192.73 1569.53 1272.58 1232.65 1023.98C895.768 775.391 888.781 522.587 888.781 522.587C888.781 522.587 919.291 193.148 504.136 197.176C88.9807 201.204 75.8912 -63.5789 75.8912 -63.5789M2214.03 1201.75C2214.03 1201.75 1562.56 1277.14 1225.78 1028.46C888.995 779.785 879.746 528.859 879.746 528.859C879.746 528.859 907.029 202.101 494.833 203.668C82.6363 205.235 67.2181 -57.6136 67.2181 -57.6136M2201.71 1210.76C2201.71 1210.76 1555.59 1281.7 1218.91 1032.94C882.222 784.178 870.711 535.132 870.711 535.132C870.711 535.132 894.767 211.054 485.53 210.16C76.2918 209.266 58.5447 -51.6484 58.5447 -51.6484M2189.39 1219.77C2189.39 1219.77 1548.62 1286.26 1212.04 1037.42C875.449 788.572 861.676 541.404 861.676 541.404C861.676 541.404 882.506 220.006 476.226 216.652C69.9472 213.297 49.8715 -45.6832 49.8715 -45.6832M2177.06 1228.78C2177.06 1228.78 1541.65 1290.82 1205.16 1041.89C868.676 792.965 852.641 547.676 852.641 547.676C852.641 547.676 870.244 228.959 466.923 223.144C63.6027 217.329 41.1983 -39.7179 41.1983 -39.7179M2164.74 1237.8C2164.74 1237.8 1534.68 1295.39 1198.29 1046.37C861.903 797.359 843.606 553.949 843.606 553.949C843.606 553.949 857.982 237.911 457.62 229.636C57.2579 221.36 32.525 -33.7527 32.525 -33.7527M2152.42 1246.81C2152.42 1246.81 1527.72 1299.95 1191.42 1050.85C855.13 801.752 834.571 560.221 834.571 560.221C834.571 560.221 845.721 246.864 448.317 236.128C50.9134 225.391 23.8518 -27.7874 23.8518 -27.7874M2140.1 1255.82C2140.1 1255.82 1520.75 1304.51 1184.55 1055.33C848.357 806.146 825.536 566.493 825.536 566.493C825.536 566.493 833.459 255.816 439.014 242.619C44.5688 229.422 15.1785 -21.8222 15.1785 -21.8222M2127.78 1264.84C2127.78 1264.84 1513.78 1309.07 1177.68 1059.81C841.584 810.539 816.501 572.766 816.501 572.766C816.501 572.766 821.197 264.769 429.711 249.111C38.2243 233.453 6.50518 -15.857 6.50518 -15.857M2115.46 1273.85C2115.46 1273.85 1506.81 1313.63 1170.81 1064.28C834.811 814.933 807.466 579.038 807.466 579.038C807.466 579.038 808.935 273.722 420.408 255.603C31.8796 237.484 -2.16782 -9.89153 -2.16782 -9.89153M2103.13 1282.86C2103.13 1282.86 1499.84 1318.2 1163.94 1068.76C828.038 819.326 798.431 585.31 798.431 585.31C798.431 585.31 796.674 282.674 411.104 262.095C25.535 241.516 -10.8413 -3.92649 -10.8413 -3.92649M2090.81 1291.88C2090.81 1291.88 1492.87 1322.76 1157.07 1073.24C821.265 823.72 789.396 591.583 789.396 591.583C789.396 591.583 784.412 291.627 401.801 268.587C19.1905 245.547 -19.5146 2.03872 -19.5146 2.03872M2078.49 1300.89C2078.49 1300.89 1485.9 1327.32 1150.2 1077.72C814.492 828.113 780.361 597.855 780.361 597.855C780.361 597.855 772.15 300.579 392.498 275.079C12.8459 249.578 -28.1878 8.00404 -28.1878 8.00404M2066.17 1309.9C2066.17 1309.9 1478.93 1331.88 1143.33 1082.19C807.719 832.507 771.326 604.127 771.326 604.127C771.326 604.127 759.889 309.532 383.195 281.571C6.50146 253.609 -36.8609 13.9694 -36.8609 13.9694M2053.85 1318.91C2053.85 1318.91 1471.96 1336.44 1136.45 1086.67C800.946 836.9 762.29 610.4 762.29 610.4C762.29 610.4 747.627 318.485 373.892 288.063C0.156896 257.64 -45.5342 19.9346 -45.5342 19.9346M2041.53 1327.93C2041.53 1327.93 1464.99 1341.01 1129.58 1091.15C794.173 841.294 753.255 616.672 753.255 616.672C753.255 616.672 735.365 327.437 364.589 294.555C-6.18778 261.672 -54.2074 25.8999 -54.2074 25.8999M2029.2 1336.94C2029.2 1336.94 1458.02 1345.57 1122.71 1095.63C787.401 845.687 744.22 622.944 744.22 622.944C744.22 622.944 723.104 336.39 355.286 301.046C-12.5324 265.703 -62.8807 31.8651 -62.8807 31.8651M2016.88 1345.95C2016.88 1345.95 1451.06 1350.13 1115.84 1100.1C780.628 850.081 735.185 629.217 735.185 629.217C735.185 629.217 710.842 345.342 345.983 307.538C-18.8769 269.734 -71.554 37.8303 -71.554 37.8303M2004.56 1354.97C2004.56 1354.97 1444.09 1354.69 1108.97 1104.58C773.855 854.474 726.15 635.489 726.15 635.489C726.15 635.489 698.58 354.295 336.679 314.03C-25.2214 273.765 -80.2272 43.7956 -80.2272 43.7956M1992.24 1363.98C1992.24 1363.98 1437.12 1359.25 1102.1 1109.06C767.082 858.868 717.115 641.761 717.115 641.761C717.115 641.761 686.319 363.248 327.376 320.522C-31.566 277.796 -88.9005 49.7608 -88.9005 49.7608M1979.92 1372.99C1979.92 1372.99 1430.15 1363.81 1095.23 1113.54C760.309 863.261 708.08 648.034 708.08 648.034C708.08 648.034 674.057 372.2 318.073 327.014C-37.9108 281.827 -97.5737 55.7261 -97.5737 55.7261M1967.6 1382C1967.6 1382 1423.18 1368.38 1088.36 1118.02C753.536 867.655 699.045 654.306 699.045 654.306C699.045 654.306 661.795 381.153 308.77 333.506C-44.2553 285.859 -106.247 61.6913 -106.247 61.6913M1955.28 1391.02C1955.28 1391.02 1416.21 1372.94 1081.49 1122.49C746.763 872.048 690.01 660.579 690.01 660.579C690.01 660.579 649.533 390.105 299.467 339.998C-50.5999 289.89 -114.92 67.6565 -114.92 67.6565M1942.95 1400.03C1942.95 1400.03 1409.24 1377.5 1074.62 1126.97C739.99 876.442 680.975 666.851 680.975 666.851C680.975 666.851 637.272 399.058 290.164 346.49C-56.9443 293.921 -123.593 73.6218 -123.593 73.6218M1930.63 1409.04C1930.63 1409.04 1402.27 1382.06 1067.74 1131.45C733.217 880.835 671.94 673.123 671.94 673.123C671.94 673.123 625.01 408.011 280.861 352.982C-63.2888 297.952 -132.267 79.587 -132.267 79.587" stroke="#EE00E0" stroke-opacity="0.4"/>
<path d="M1589.02 -515C1589.02 -515 1533.92 185.942 1213.6 455.853C893.274 725.763 636.828 654.724 636.828 654.724C636.828 654.724 310.825 521.366 229.157 950.038C147.489 1378.71 -122.3 1310.25 -122.3 1310.25M1594.88 -500.907C1594.88 -500.907 1536.72 193.788 1216.34 463.583C895.955 733.378 640.805 664.979 640.805 664.979C640.805 664.979 316.649 535.386 233.283 960.605C149.918 1385.82 -118.538 1320.08 -118.538 1320.08M1600.75 -486.814C1600.75 -486.814 1539.51 201.633 1219.08 471.313C898.635 740.993 644.78 675.234 644.78 675.234C644.78 675.234 322.473 549.407 237.41 971.172C152.347 1392.94 -114.775 1329.91 -114.775 1329.91M1606.62 -472.72C1606.62 -472.72 1542.31 209.479 1221.81 479.043C901.316 748.608 648.756 685.489 648.756 685.489C648.756 685.489 328.296 563.428 241.536 981.74C154.775 1400.05 -111.013 1339.74 -111.013 1339.74M1612.49 -458.627C1612.49 -458.627 1545.11 217.324 1224.55 486.774C903.997 756.223 652.732 695.744 652.732 695.744C652.732 695.744 334.12 577.449 245.662 992.307C157.205 1407.17 -107.251 1349.57 -107.251 1349.57M1618.36 -444.534C1618.36 -444.534 1547.91 225.169 1227.29 494.504C906.677 763.838 656.708 705.999 656.708 705.999C656.708 705.999 339.944 591.47 249.789 1002.87C159.633 1414.28 -103.489 1359.4 -103.489 1359.4M1624.23 -430.441C1624.23 -430.441 1550.71 233.015 1230.03 502.234C909.358 771.454 660.684 716.254 660.684 716.254C660.684 716.254 345.768 605.49 253.915 1013.44C162.063 1421.39 -99.7263 1369.24 -99.7263 1369.24M1630.09 -416.348C1630.09 -416.348 1553.51 240.86 1232.77 509.964C912.039 779.069 664.66 726.51 664.66 726.51C664.66 726.51 351.591 619.511 258.041 1024.01C164.491 1428.51 -95.964 1379.07 -95.964 1379.07M1635.96 -402.254C1635.96 -402.254 1556.3 248.705 1235.51 517.695C914.719 786.684 668.636 736.765 668.636 736.765C668.636 736.765 357.415 633.532 262.168 1034.58C166.921 1435.62 -92.2016 1388.9 -92.2016 1388.9M1641.83 -388.161C1641.83 -388.161 1559.1 256.551 1238.25 525.425C917.4 794.299 672.612 747.02 672.612 747.02C672.612 747.02 363.239 647.553 266.294 1045.14C169.35 1442.73 -88.4393 1398.73 -88.4393 1398.73M1647.7 -374.068C1647.7 -374.068 1561.9 264.396 1240.99 533.155C920.081 801.914 676.588 757.275 676.588 757.275C676.588 757.275 369.062 661.574 270.421 1055.71C171.779 1449.85 -84.6771 1408.56 -84.6771 1408.56M1653.57 -359.975C1653.57 -359.975 1564.7 272.241 1243.73 540.885C922.761 809.529 680.563 767.53 680.563 767.53C680.563 767.53 374.886 675.594 274.547 1066.28C174.208 1456.96 -80.9147 1418.39 -80.9147 1418.39M1659.44 -345.882C1659.44 -345.882 1567.5 280.087 1246.47 548.615C925.442 817.144 684.539 777.785 684.539 777.785C684.539 777.785 380.71 689.615 278.673 1076.84C176.637 1464.07 -77.1524 1428.22 -77.1524 1428.22M1665.3 -331.788C1665.3 -331.788 1570.3 287.932 1249.21 556.346C928.123 824.759 688.515 788.04 688.515 788.04C688.515 788.04 386.534 703.636 282.8 1087.41C179.066 1471.19 -73.39 1438.06 -73.39 1438.06M1671.17 -317.695C1671.17 -317.695 1573.09 295.777 1251.95 564.076C930.803 832.375 692.491 798.295 692.491 798.295C692.491 798.295 392.357 717.657 286.926 1097.98C181.495 1478.3 -69.6277 1447.89 -69.6277 1447.89M1677.04 -303.602C1677.04 -303.602 1575.89 303.623 1254.69 571.806C933.484 839.99 696.467 808.55 696.467 808.55C696.467 808.55 398.181 731.677 291.053 1108.55C183.924 1485.42 -65.8655 1457.72 -65.8655 1457.72M1682.91 -289.509C1682.91 -289.509 1578.69 311.468 1257.43 579.536C936.165 847.605 700.443 818.805 700.443 818.805C700.443 818.805 404.005 745.698 295.179 1119.11C186.353 1492.53 -62.1029 1467.55 -62.1029 1467.55M1688.78 -275.416C1688.78 -275.416 1581.49 319.313 1260.17 587.267C938.845 855.22 704.419 829.061 704.419 829.061C704.419 829.061 409.828 759.719 299.305 1129.68C188.782 1499.64 -58.3408 1477.38 -58.3408 1477.38M1694.65 -261.323C1694.65 -261.323 1584.29 327.159 1262.91 594.997C941.526 862.835 708.395 839.316 708.395 839.316C708.395 839.316 415.652 773.74 303.431 1140.25C191.211 1506.76 -54.5785 1487.21 -54.5785 1487.21M1700.51 -247.229C1700.51 -247.229 1587.09 335.004 1265.65 602.727C944.207 870.45 712.371 849.571 712.371 849.571C712.371 849.571 421.476 787.761 307.558 1150.82C193.64 1513.87 -50.8161 1497.04 -50.8161 1497.04M1706.38 -233.136C1706.38 -233.136 1589.88 342.85 1268.39 610.457C946.887 878.065 716.347 859.826 716.347 859.826C716.347 859.826 427.3 801.781 311.684 1161.38C196.069 1520.98 -47.0537 1506.87 -47.0537 1506.87M1712.25 -219.043C1712.25 -219.043 1592.68 350.695 1271.13 618.188C949.568 885.68 720.322 870.081 720.322 870.081C720.322 870.081 433.124 815.802 315.811 1171.95C198.498 1528.1 -43.2914 1516.71 -43.2914 1516.71M1718.12 -204.95C1718.12 -204.95 1595.48 358.54 1273.86 625.918C952.248 893.295 724.298 880.336 724.298 880.336C724.298 880.336 438.947 829.823 319.937 1182.52C200.927 1535.21 -39.529 1526.54 -39.529 1526.54M1723.99 -190.857C1723.99 -190.857 1598.28 366.386 1276.6 633.648C954.929 900.911 728.274 890.591 728.274 890.591C728.274 890.591 444.771 843.844 324.063 1193.08C203.356 1542.32 -35.7668 1536.37 -35.7668 1536.37M1729.86 -176.763C1729.86 -176.763 1601.08 374.231 1279.34 641.378C957.61 908.526 732.25 900.846 732.25 900.846C732.25 900.846 450.595 857.864 328.19 1203.65C205.785 1549.44 -32.0045 1546.2 -32.0045 1546.2M1735.72 -162.67C1735.72 -162.67 1603.88 382.076 1282.08 649.108C960.29 916.141 736.226 911.101 736.226 911.101C736.226 911.101 456.418 871.885 332.316 1214.22C208.214 1556.55 -28.2421 1556.03 -28.2421 1556.03M1741.59 -148.577C1741.59 -148.577 1606.67 389.922 1284.82 656.839C962.971 923.756 740.202 921.356 740.202 921.356C740.202 921.356 462.242 885.906 336.443 1224.79C210.643 1563.67 -24.4798 1565.86 -24.4798 1565.86M1747.46 -134.484C1747.46 -134.484 1609.47 397.767 1287.56 664.569C965.652 931.371 744.178 931.611 744.178 931.611C744.178 931.611 468.066 899.927 340.569 1235.35C213.072 1570.78 -20.7174 1575.69 -20.7174 1575.69M1753.33 -120.391C1753.33 -120.391 1612.27 405.612 1290.3 672.299C968.332 938.986 748.154 941.866 748.154 941.866C748.154 941.866 473.89 913.948 344.695 1245.92C215.501 1577.89 -16.9551 1585.52 -16.9551 1585.52M1759.2 -106.297C1759.2 -106.297 1615.07 413.458 1293.04 680.029C971.013 946.601 752.13 952.121 752.13 952.121C752.13 952.121 479.713 927.968 348.822 1256.49C217.93 1585.01 -13.1929 1595.36 -13.1929 1595.36M1765.07 -92.2042C1765.07 -92.2042 1617.87 421.303 1295.78 687.76C973.694 954.216 756.106 962.377 756.106 962.377C756.106 962.377 485.537 941.989 352.948 1267.05C220.359 1592.12 -9.43044 1605.19 -9.43044 1605.19M1770.93 -78.1111C1770.93 -78.1111 1620.67 429.148 1298.52 695.49C976.374 961.831 760.081 972.632 760.081 972.632C760.081 972.632 491.361 956.01 357.075 1277.62C222.788 1599.23 -5.66818 1615.02 -5.66818 1615.02" stroke="#EE00E0" stroke-opacity="0.4"/>
</svg>
