<?xml version="1.0" encoding="UTF-8" standalone="no"?>
<!-- Created with Inkscape (http://www.inkscape.org/) -->

<svg
   width="210mm"
   height="297mm"
   viewBox="0 0 210 297"
   version="1.1"
   id="svg7803"
   xml:space="preserve"
   inkscape:version="1.2.2 (732a01da63, 2022-12-09)"
   sodipodi:docname="rysunek.svg"
   xmlns:inkscape="http://www.inkscape.org/namespaces/inkscape"
   xmlns:sodipodi="http://sodipodi.sourceforge.net/DTD/sodipodi-0.dtd"
   xmlns="http://www.w3.org/2000/svg"
   xmlns:svg="http://www.w3.org/2000/svg"><sodipodi:namedview
     id="namedview7805"
     pagecolor="#ffffff"
     bordercolor="#000000"
     borderopacity="0.25"
     inkscape:showpageshadow="2"
     inkscape:pageopacity="0.0"
     inkscape:pagecheckerboard="0"
     inkscape:deskcolor="#d1d1d1"
     inkscape:document-units="mm"
     showgrid="false"
     inkscape:zoom="0.37282197"
     inkscape:cx="277.6124"
     inkscape:cy="726.88849"
     inkscape:window-width="1920"
     inkscape:window-height="1017"
     inkscape:window-x="-8"
     inkscape:window-y="-8"
     inkscape:window-maximized="1"
     inkscape:current-layer="layer1" /><defs
     id="defs7800"><inkscape:path-effect
       effect="interpolate"
       id="path-effect8784"
       is_visible="true"
       lpeversion="1"
       trajectory="M 124.75799,161.10441 58.886119,165.8871"
       equidistant_spacing="true"
       steps="32" /><inkscape:path-effect
       effect="interpolate"
       id="path-effect8784-6"
       is_visible="true"
       lpeversion="1"
       trajectory="M 124.75799,161.10441 58.886119,165.8871"
       equidistant_spacing="true"
       steps="32" /></defs><g
     inkscape:label="Warstwa 1"
     inkscape:groupmode="layer"
     id="layer1"><path
       id="path4965-6"
       style="fill:none;stroke:#ee00e0;stroke-width:0.344888px;stroke-linecap:butt;stroke-linejoin:miter;stroke-opacity:1"
       class="UnoptimicedTransforms"
       d="m 174.23469,-28.881926 c 0,0 -97.08619,58.184421 -98.895246,124.174073 -1.809059,65.989653 39.196286,98.274913 39.196286,98.274913 0,0 58.49294,37.96178 4.82416,80.53573 -53.668765,42.574 -11.45737,76.98795 -11.45737,76.98795 m 63.55041,-379.819347 c 0,0 -95.797254,58.184716 -97.582292,124.174701 -1.785042,65.989986 38.675902,98.275406 38.675902,98.275406 0,0 57.71638,37.96198 4.76012,80.53614 -52.956248,42.57422 -11.30526,76.98834 -11.30526,76.98834 m 62.66976,-379.821268 c 0,0 -94.508307,58.18501 -96.269328,124.17533 -1.761024,65.990318 38.155528,98.275908 38.155528,98.275908 0,0 56.9398,37.96216 4.69606,80.53654 -52.24372,42.57443 -11.15314,76.98873 -11.15314,76.98873 M 165.8894,-28.421969 c 0,0 -93.219371,58.185305 -94.956375,124.175958 -1.737006,65.990651 37.635145,98.276401 37.635145,98.276401 0,0 56.16324,37.96236 4.63202,80.53696 -51.531203,42.57464 -11.00104,76.98911 -11.00104,76.98911 m 60.90848,-379.82511 c 0,0 -91.930425,58.185599 -93.643411,124.176587 -1.712989,65.990983 37.114771,98.276903 37.114771,98.276903 0,0 55.38667,37.96255 4.56797,80.53736 -50.818686,42.57486 -10.84893,76.98951 -10.84893,76.98951 m 60.02784,-379.82704 c 0,0 -90.641488,58.185893 -92.330457,124.177214 -1.688971,65.991326 36.594387,98.277396 36.594387,98.277396 0,0 54.6101,37.96274 4.50393,80.53777 -50.106168,42.57508 -10.69682,76.9899 -10.69682,76.9899 M 157.5441,-27.962011 c 0,0 -89.352542,58.186187 -91.017493,124.177843 -1.664954,65.991658 36.074003,98.277898 36.074003,98.277898 0,0 53.83354,37.96293 4.43988,80.53817 -49.393641,42.57529 -10.544701,76.99029 -10.544701,76.99029 M 154.76234,-27.808692 c 0,0 -88.063606,58.186482 -89.704539,124.178471 -1.640937,65.991991 35.553629,98.278391 35.553629,98.278391 0,0 53.05697,37.96313 4.37583,80.53859 -48.681124,42.5755 -10.392593,76.99067 -10.392593,76.99067 M 151.98058,-27.655373 c 0,0 -86.774669,58.186776 -88.391586,124.1791 -1.616918,65.992323 35.033249,98.278893 35.033249,98.278893 0,0 52.280397,37.96331 4.311787,80.53899 -47.968606,42.57572 -10.240485,76.99106 -10.240485,76.99106 M 149.19881,-27.502054 c 0,0 -85.485723,58.187071 -87.078622,124.179728 -1.592901,65.992656 34.512869,98.279386 34.512869,98.279386 0,0 51.503833,37.96351 4.247743,80.5394 -47.256089,42.57594 -10.088377,76.99145 -10.088377,76.99145 M 146.41705,-27.348735 c 0,0 -84.196787,58.187365 -85.765668,124.180357 -1.568884,65.992988 33.992489,98.279878 33.992489,98.279878 0,0 50.727269,37.96371 4.183692,80.53981 -46.543565,42.57615 -9.936262,76.99185 -9.936262,76.99185 M 143.63528,-27.195416 c 0,0 -82.90784,58.18766 -84.452704,124.180985 -1.544866,65.993321 33.472109,98.280381 33.472109,98.280381 0,0 49.950705,37.96389 4.119645,80.54021 -45.831044,42.57637 -9.784151,76.99224 -9.784151,76.99224 M 140.85352,-27.042097 c 0,0 -81.618904,58.187954 -83.13975,124.181614 -1.520849,65.993653 32.951729,98.280873 32.951729,98.280873 0,0 49.174131,37.96409 4.055598,80.54063 -45.118524,42.57658 -9.63204,76.99262 -9.63204,76.99262 M 138.07176,-26.888778 c 0,0 -80.329968,58.188249 -81.826797,124.182242 -1.496831,65.993996 32.43135,98.281376 32.43135,98.281376 0,0 48.397567,37.96428 3.991552,80.54103 -44.406005,42.5768 -9.47993,76.99301 -9.47993,76.99301 M 135.28999,-26.735458 c 0,0 -79.041022,58.188542 -80.513833,124.182869 -1.472814,65.994329 31.91097,98.281869 31.91097,98.281869 0,0 47.621003,37.96447 3.927505,80.54144 -43.693485,42.57701 -9.327819,76.9934 -9.327819,76.9934 M 132.50823,-26.582139 c 0,0 -77.752085,58.188837 -79.200879,124.183498 -1.448796,65.994661 31.39059,98.282371 31.39059,98.282371 0,0 46.844429,37.96466 3.863458,80.54184 -42.980964,42.57723 -9.175708,76.99379 -9.175708,76.99379 M 129.72646,-26.42882 c 0,0 -76.463139,58.189131 -77.887915,124.184126 -1.424779,65.994994 30.87021,98.282864 30.87021,98.282864 0,0 46.067865,37.96486 3.799412,80.54226 -42.268445,42.57744 -9.023598,76.99417 -9.023598,76.99417 M 126.9447,-26.275501 c 0,0 -75.174203,58.189426 -76.574961,124.184755 -1.400762,65.995326 30.349831,98.283366 30.349831,98.283366 0,0 45.2913,37.96504 3.735364,80.54266 -41.555925,42.57766 -8.871486,76.99457 -8.871486,76.99457 M 124.16293,-26.122182 c 0,0 -73.885256,58.18972 -75.261998,124.185383 -1.376743,65.995659 29.829452,98.283859 29.829452,98.283859 0,0 44.514726,37.96524 3.671317,80.54307 -40.843404,42.57787 -8.719375,76.99496 -8.719375,76.99496 M 121.38117,-25.968863 c 0,0 -72.59632,58.190015 -73.949044,124.186012 -1.352726,65.995991 29.309072,98.284351 29.309072,98.284351 0,0 43.738162,37.96544 3.60727,80.54348 -40.130884,42.57809 -8.567264,76.99535 -8.567264,76.99535 M 118.59941,-25.815544 c 0,0 -71.307384,58.19031 -72.63609,124.18664 -1.328709,65.996324 28.788692,98.284854 28.788692,98.284854 0,0 42.961598,37.96562 3.543224,80.54388 -39.418365,42.57831 -8.415154,76.99574 -8.415154,76.99574 M 115.81764,-25.662225 c 0,0 -70.018437,58.190604 -71.323126,124.187269 -1.304691,65.996666 28.268312,98.285346 28.268312,98.285346 0,0 42.185024,37.96582 3.479177,80.5443 -38.705844,42.57851 -8.263043,76.99612 -8.263043,76.99612 m 45.05692,-379.859716 c 0,0 -68.729501,58.190899 -70.010172,124.187897 -1.280674,65.996999 27.747932,98.285849 27.747932,98.285849 0,0 41.40846,37.96601 3.41513,80.5447 -37.993324,42.57873 -8.110932,76.99651 -8.110932,76.99651 M 110.25411,-25.355587 c 0,0 -67.440555,58.191193 -68.697209,124.188526 -1.256656,65.997331 27.227553,98.286341 27.227553,98.286341 0,0 40.631896,37.9662 3.351084,80.54511 -37.280805,42.57895 -7.958822,76.99691 -7.958822,76.99691 M 107.47235,-25.202267 c 0,0 -66.151618,58.191487 -67.384255,124.189153 -1.232638,65.997664 26.707173,98.286844 26.707173,98.286844 0,0 39.855322,37.96639 3.287037,80.54551 -36.568284,42.57917 -7.806711,76.9973 -7.806711,76.9973 M 104.69059,-25.048948 c 0,0 -64.862682,58.191781 -66.071301,124.189782 -1.208621,65.997996 26.186793,98.287336 26.186793,98.287336 0,0 39.078758,37.96659 3.22299,80.54593 -35.855764,42.57937 -7.6546,76.99768 -7.6546,76.99768 M 101.90882,-24.895629 c 0,0 -63.573736,58.192076 -64.758337,124.19041 -1.184604,65.998329 25.666413,98.287839 25.666413,98.287839 0,0 38.302194,37.96677 3.158943,80.54633 -35.143244,42.57959 -7.502489,76.99807 -7.502489,76.99807 M 99.127057,-24.74231 c 0,0 -62.284796,58.19237 -63.44538,124.191039 -1.160586,65.998661 25.146034,98.288331 25.146034,98.288331 0,0 37.525624,37.96697 3.094896,80.54674 -34.430724,42.57981 -7.350378,76.99846 -7.350378,76.99846 M 96.345292,-24.588991 c 0,0 -60.995855,58.192665 -62.132422,124.191667 -1.136568,65.998994 24.625655,98.288824 24.625655,98.288824 0,0 36.749056,37.96717 3.030849,80.54715 -33.718204,42.58003 -7.198267,76.99885 -7.198267,76.99885 M 93.563528,-24.435672 c 0,0 -59.706915,58.192959 -60.819464,124.192295 -1.112551,65.999337 24.105275,98.289327 24.105275,98.289327 0,0 35.972489,37.96735 2.966802,80.54755 -33.005684,42.58024 -7.046156,76.99925 -7.046156,76.99925 M 90.781764,-24.282353 c 0,0 -58.417974,58.193254 -59.506506,124.192924 -1.088533,65.999669 23.584895,98.289819 23.584895,98.289819 0,0 35.195922,37.96755 2.902756,80.54797 -32.293164,42.58045 -6.894046,76.99963 -6.894046,76.99963 M 88,-24.129034 c 0,0 -57.129034,58.193548 -58.193548,124.193554 -1.064516,66 23.064515,98.29032 23.064515,98.29032 0,0 34.419355,37.96774 2.838709,80.54837 -31.580644,42.58067 -6.741935,77.00002 -6.741935,77.00002"
       inkscape:path-effect="#path-effect8784"
       inkscape:original-d="m 174.23469,-28.881926 c 0,0 -97.08619,58.184421 -98.895246,124.174073 -1.809059,65.989653 39.196286,98.274913 39.196286,98.274913 0,0 58.49294,37.96178 4.82416,80.53573 -53.668765,42.574 -11.45737,76.98795 -11.45737,76.98795 M 88,-24.129032 c 0,0 -57.129034,58.193548 -58.193548,124.193552 -1.064516,66 23.064515,98.29032 23.064515,98.29032 0,0 34.419355,37.96774 2.838709,80.54837 -31.580644,42.58067 -6.741935,77.00002 -6.741935,77.00002"
       transform="matrix(0.93935426,1.1258983,-0.76774306,0.64053986,148.60906,-49.55064)" /><path
       id="path4965-6-1"
       style="fill:none;stroke:#ee00e0;stroke-width:0.344888px;stroke-linecap:butt;stroke-linejoin:miter;stroke-opacity:1"
       class="UnoptimicedTransforms"
       d="m 174.23469,-28.881926 c 0,0 -97.08619,58.184421 -98.895246,124.174073 -1.809059,65.989653 39.196286,98.274913 39.196286,98.274913 0,0 58.49294,37.96178 4.82416,80.53573 -53.668765,42.574 -11.45737,76.98795 -11.45737,76.98795 m 63.55041,-379.819347 c 0,0 -95.797254,58.184716 -97.582292,124.174701 -1.785042,65.989986 38.675902,98.275406 38.675902,98.275406 0,0 57.71638,37.96198 4.76012,80.53614 -52.956248,42.57422 -11.30526,76.98834 -11.30526,76.98834 m 62.66976,-379.821268 c 0,0 -94.508307,58.18501 -96.269328,124.17533 -1.761024,65.990318 38.155528,98.275908 38.155528,98.275908 0,0 56.9398,37.96216 4.69606,80.53654 -52.24372,42.57443 -11.15314,76.98873 -11.15314,76.98873 M 165.8894,-28.421969 c 0,0 -93.219371,58.185305 -94.956375,124.175958 -1.737006,65.990651 37.635145,98.276401 37.635145,98.276401 0,0 56.16324,37.96236 4.63202,80.53696 -51.531203,42.57464 -11.00104,76.98911 -11.00104,76.98911 m 60.90848,-379.82511 c 0,0 -91.930425,58.185599 -93.643411,124.176587 -1.712989,65.990983 37.114771,98.276903 37.114771,98.276903 0,0 55.38667,37.96255 4.56797,80.53736 -50.818686,42.57486 -10.84893,76.98951 -10.84893,76.98951 m 60.02784,-379.82704 c 0,0 -90.641488,58.185893 -92.330457,124.177214 -1.688971,65.991326 36.594387,98.277396 36.594387,98.277396 0,0 54.6101,37.96274 4.50393,80.53777 -50.106168,42.57508 -10.69682,76.9899 -10.69682,76.9899 M 157.5441,-27.962011 c 0,0 -89.352542,58.186187 -91.017493,124.177843 -1.664954,65.991658 36.074003,98.277898 36.074003,98.277898 0,0 53.83354,37.96293 4.43988,80.53817 -49.393641,42.57529 -10.544701,76.99029 -10.544701,76.99029 M 154.76234,-27.808692 c 0,0 -88.063606,58.186482 -89.704539,124.178471 -1.640937,65.991991 35.553629,98.278391 35.553629,98.278391 0,0 53.05697,37.96313 4.37583,80.53859 -48.681124,42.5755 -10.392593,76.99067 -10.392593,76.99067 M 151.98058,-27.655373 c 0,0 -86.774669,58.186776 -88.391586,124.1791 -1.616918,65.992323 35.033249,98.278893 35.033249,98.278893 0,0 52.280397,37.96331 4.311787,80.53899 -47.968606,42.57572 -10.240485,76.99106 -10.240485,76.99106 M 149.19881,-27.502054 c 0,0 -85.485723,58.187071 -87.078622,124.179728 -1.592901,65.992656 34.512869,98.279386 34.512869,98.279386 0,0 51.503833,37.96351 4.247743,80.5394 -47.256089,42.57594 -10.088377,76.99145 -10.088377,76.99145 M 146.41705,-27.348735 c 0,0 -84.196787,58.187365 -85.765668,124.180357 -1.568884,65.992988 33.992489,98.279878 33.992489,98.279878 0,0 50.727269,37.96371 4.183692,80.53981 -46.543565,42.57615 -9.936262,76.99185 -9.936262,76.99185 M 143.63528,-27.195416 c 0,0 -82.90784,58.18766 -84.452704,124.180985 -1.544866,65.993321 33.472109,98.280381 33.472109,98.280381 0,0 49.950705,37.96389 4.119645,80.54021 -45.831044,42.57637 -9.784151,76.99224 -9.784151,76.99224 M 140.85352,-27.042097 c 0,0 -81.618904,58.187954 -83.13975,124.181614 -1.520849,65.993653 32.951729,98.280873 32.951729,98.280873 0,0 49.174131,37.96409 4.055598,80.54063 -45.118524,42.57658 -9.63204,76.99262 -9.63204,76.99262 M 138.07176,-26.888778 c 0,0 -80.329968,58.188249 -81.826797,124.182242 -1.496831,65.993996 32.43135,98.281376 32.43135,98.281376 0,0 48.397567,37.96428 3.991552,80.54103 -44.406005,42.5768 -9.47993,76.99301 -9.47993,76.99301 M 135.28999,-26.735458 c 0,0 -79.041022,58.188542 -80.513833,124.182869 -1.472814,65.994329 31.91097,98.281869 31.91097,98.281869 0,0 47.621003,37.96447 3.927505,80.54144 -43.693485,42.57701 -9.327819,76.9934 -9.327819,76.9934 M 132.50823,-26.582139 c 0,0 -77.752085,58.188837 -79.200879,124.183498 -1.448796,65.994661 31.39059,98.282371 31.39059,98.282371 0,0 46.844429,37.96466 3.863458,80.54184 -42.980964,42.57723 -9.175708,76.99379 -9.175708,76.99379 M 129.72646,-26.42882 c 0,0 -76.463139,58.189131 -77.887915,124.184126 -1.424779,65.994994 30.87021,98.282864 30.87021,98.282864 0,0 46.067865,37.96486 3.799412,80.54226 -42.268445,42.57744 -9.023598,76.99417 -9.023598,76.99417 M 126.9447,-26.275501 c 0,0 -75.174203,58.189426 -76.574961,124.184755 -1.400762,65.995326 30.349831,98.283366 30.349831,98.283366 0,0 45.2913,37.96504 3.735364,80.54266 -41.555925,42.57766 -8.871486,76.99457 -8.871486,76.99457 M 124.16293,-26.122182 c 0,0 -73.885256,58.18972 -75.261998,124.185383 -1.376743,65.995659 29.829452,98.283859 29.829452,98.283859 0,0 44.514726,37.96524 3.671317,80.54307 -40.843404,42.57787 -8.719375,76.99496 -8.719375,76.99496 M 121.38117,-25.968863 c 0,0 -72.59632,58.190015 -73.949044,124.186012 -1.352726,65.995991 29.309072,98.284351 29.309072,98.284351 0,0 43.738162,37.96544 3.60727,80.54348 -40.130884,42.57809 -8.567264,76.99535 -8.567264,76.99535 M 118.59941,-25.815544 c 0,0 -71.307384,58.19031 -72.63609,124.18664 -1.328709,65.996324 28.788692,98.284854 28.788692,98.284854 0,0 42.961598,37.96562 3.543224,80.54388 -39.418365,42.57831 -8.415154,76.99574 -8.415154,76.99574 M 115.81764,-25.662225 c 0,0 -70.018437,58.190604 -71.323126,124.187269 -1.304691,65.996666 28.268312,98.285346 28.268312,98.285346 0,0 42.185024,37.96582 3.479177,80.5443 -38.705844,42.57851 -8.263043,76.99612 -8.263043,76.99612 m 45.05692,-379.859716 c 0,0 -68.729501,58.190899 -70.010172,124.187897 -1.280674,65.996999 27.747932,98.285849 27.747932,98.285849 0,0 41.40846,37.96601 3.41513,80.5447 -37.993324,42.57873 -8.110932,76.99651 -8.110932,76.99651 M 110.25411,-25.355587 c 0,0 -67.440555,58.191193 -68.697209,124.188526 -1.256656,65.997331 27.227553,98.286341 27.227553,98.286341 0,0 40.631896,37.9662 3.351084,80.54511 -37.280805,42.57895 -7.958822,76.99691 -7.958822,76.99691 M 107.47235,-25.202267 c 0,0 -66.151618,58.191487 -67.384255,124.189153 -1.232638,65.997664 26.707173,98.286844 26.707173,98.286844 0,0 39.855322,37.96639 3.287037,80.54551 -36.568284,42.57917 -7.806711,76.9973 -7.806711,76.9973 M 104.69059,-25.048948 c 0,0 -64.862682,58.191781 -66.071301,124.189782 -1.208621,65.997996 26.186793,98.287336 26.186793,98.287336 0,0 39.078758,37.96659 3.22299,80.54593 -35.855764,42.57937 -7.6546,76.99768 -7.6546,76.99768 M 101.90882,-24.895629 c 0,0 -63.573736,58.192076 -64.758337,124.19041 -1.184604,65.998329 25.666413,98.287839 25.666413,98.287839 0,0 38.302194,37.96677 3.158943,80.54633 -35.143244,42.57959 -7.502489,76.99807 -7.502489,76.99807 M 99.127057,-24.74231 c 0,0 -62.284796,58.19237 -63.44538,124.191039 -1.160586,65.998661 25.146034,98.288331 25.146034,98.288331 0,0 37.525624,37.96697 3.094896,80.54674 -34.430724,42.57981 -7.350378,76.99846 -7.350378,76.99846 M 96.345292,-24.588991 c 0,0 -60.995855,58.192665 -62.132422,124.191667 -1.136568,65.998994 24.625655,98.288824 24.625655,98.288824 0,0 36.749056,37.96717 3.030849,80.54715 -33.718204,42.58003 -7.198267,76.99885 -7.198267,76.99885 M 93.563528,-24.435672 c 0,0 -59.706915,58.192959 -60.819464,124.192295 -1.112551,65.999337 24.105275,98.289327 24.105275,98.289327 0,0 35.972489,37.96735 2.966802,80.54755 -33.005684,42.58024 -7.046156,76.99925 -7.046156,76.99925 M 90.781764,-24.282353 c 0,0 -58.417974,58.193254 -59.506506,124.192924 -1.088533,65.999669 23.584895,98.289819 23.584895,98.289819 0,0 35.195922,37.96755 2.902756,80.54797 -32.293164,42.58045 -6.894046,76.99963 -6.894046,76.99963 M 88,-24.129034 c 0,0 -57.129034,58.193548 -58.193548,124.193554 -1.064516,66 23.064515,98.29032 23.064515,98.29032 0,0 34.419355,37.96774 2.838709,80.54837 -31.580644,42.58067 -6.741935,77.00002 -6.741935,77.00002"
       inkscape:path-effect="#path-effect8784-6"
       inkscape:original-d="m 174.23469,-28.881926 c 0,0 -97.08619,58.184421 -98.895246,124.174073 -1.809059,65.989653 39.196286,98.274913 39.196286,98.274913 0,0 58.49294,37.96178 4.82416,80.53573 -53.668765,42.574 -11.45737,76.98795 -11.45737,76.98795 M 88,-24.129032 c 0,0 -57.129034,58.193548 -58.193548,124.193552 -1.064516,66 23.064515,98.29032 23.064515,98.29032 0,0 34.419355,37.96774 2.838709,80.54837 -31.580644,42.58067 -6.741935,77.00002 -6.741935,77.00002"
       transform="matrix(-0.94532824,1.1208871,-0.76432599,-0.64461345,312.4249,151.33398)" /></g></svg>
